<svg width="175" height="163" viewBox="0 0 175 163" fill="none" xmlns="http://www.w3.org/2000/svg">
<rect x="0.5" y="0.5" width="174" height="162" rx="5.5" stroke="#D9D9D9"/>
<path d="M121.125 39.0524L114.272 83.7918H104.196L111.004 39.3788C111.418 36.7363 110.716 34.046 109.112 31.9925C107.493 29.9549 105.135 28.7769 102.651 28.7769H61.5986L63.2546 18H103.863C108.861 18.3502 113.503 20.8654 116.763 24.9962C119.868 28.9361 121.406 33.9505 121.125 39.0524Z" fill="black"/>
<path d="M105.702 41.4394L99.2109 83.8069H89.0237L94.8935 45.5067H59.0312L60.6946 34.6899H100.386C101.983 34.6899 103.469 35.4381 104.497 36.7355C105.532 38.0408 105.96 39.7521 105.702 41.4394Z" fill="black"/>
<path d="M88.7445 51.7471L83.8283 83.7913H73.6485L76.9013 62.5638H56.416L58.0794 51.7471H88.7445Z" fill="black"/>
<path d="M88.7445 51.7471L83.8283 83.7913H73.6485L76.9013 62.5718H56.416L58.0794 51.7471H88.7445Z" fill="black"/>
<path d="M69.3244 68.8779L67.0326 83.8096C59.773 83.8096 54.2432 76.7975 55.426 69.0849L55.463 68.8779H69.3244Z" fill="black"/>
<path d="M69.3244 68.8779L67.0326 83.8096C59.773 83.8096 54.2432 76.7975 55.426 69.0849L55.463 68.8779H69.3244Z" fill="black"/>
<path d="M121.125 39.0524L114.272 83.7918H104.196L111.004 39.3788C111.418 36.7363 110.716 34.046 109.112 31.9925C107.493 29.9549 105.135 28.7769 102.651 28.7769H61.5986L63.2546 18H103.863C108.861 18.3502 113.503 20.8654 116.763 24.9962C119.868 28.9361 121.406 33.9505 121.125 39.0524Z" fill="url(#paint0_linear_257_28)"/>
<path d="M105.702 41.4394L99.2109 83.8069H89.0237L94.8935 45.5067H59.0312L60.6946 34.6899H100.386C101.983 34.6899 103.469 35.4381 104.497 36.7355C105.532 38.0408 105.96 39.7521 105.702 41.4394Z" fill="url(#paint1_linear_257_28)"/>
<path d="M88.7445 51.7471L83.8283 83.7913H73.6485L76.9013 62.5638H56.416L58.0794 51.7471H88.7445Z" fill="url(#paint2_linear_257_28)"/>
<path d="M88.7445 51.7471L83.8283 83.7913H73.6485L76.9013 62.5718H56.416L58.0794 51.7471H88.7445Z" fill="url(#paint3_linear_257_28)"/>
<path d="M69.3244 68.8779L67.0326 83.8096C59.773 83.8096 54.2432 76.7975 55.426 69.0849L55.463 68.8779H69.3244Z" fill="url(#paint4_linear_257_28)"/>
<path d="M69.3244 68.8779L67.0326 83.8096C59.773 83.8096 54.2432 76.7975 55.426 69.0849L55.463 68.8779H69.3244Z" fill="url(#paint5_linear_257_28)"/>
<path d="M47.6873 144.62L49.4825 134.311H57.144L56.8166 136.207H51.452L51.0665 138.466H55.9718L55.6444 140.262H50.7497L50.3168 142.723H55.6708L55.354 144.62H47.6925H47.6873Z" fill="black"/>
<path d="M59.7756 140.575C59.7756 136.856 62.0303 134.16 65.758 134.16C67.9968 134.16 70.0613 135.348 70.0613 137.725C70.0613 137.868 70.0455 138.012 70.0349 138.156H67.8701C67.8701 136.952 67.0094 136.057 65.6049 136.057C63.3397 136.057 62.0883 138.055 62.0883 140.399C62.0883 141.933 63.0335 142.86 64.4538 142.86C65.9587 142.86 67.02 141.992 67.3949 140.676H69.6072C69.264 143.297 67.1942 144.757 64.2954 144.757C61.3966 144.757 59.7756 143.089 59.7756 140.575Z" fill="black"/>
<path d="M73.3367 140.575C73.3367 136.856 75.5913 134.16 79.3191 134.16C82.1017 134.16 83.8389 135.828 83.8389 138.343C83.8389 142.061 81.7004 144.757 77.8565 144.757C75.0422 144.757 73.3367 143.089 73.3367 140.575ZM81.5314 138.518C81.5314 136.984 80.5863 136.057 79.1659 136.057C76.9008 136.057 75.6494 138.055 75.6494 140.399C75.6494 141.933 76.5945 142.86 78.0149 142.86C80.28 142.86 81.5314 140.863 81.5314 138.518Z" fill="black"/>
<path d="M89.0943 144.62L87.1724 134.311H89.5273L90.7893 142.302L94.8497 134.311H97.4475L91.935 144.62H89.0943Z" fill="black"/>
<path d="M105.301 144.62L104.969 142.707H100.734L99.7414 144.62H97.2598L102.772 134.311H105.613L107.535 144.62H105.296H105.301ZM103.955 136.394L101.616 140.928H104.715L103.955 136.394Z" fill="black"/>
<path d="M112.313 144.62L113.776 136.207H110.75L111.077 134.311H119.457L119.13 136.207H116.088L114.626 144.62H112.313Z" fill="black"/>
<path d="M121.484 144.62L123.279 134.311H125.592L123.797 144.62H121.484Z" fill="black"/>
<path d="M128.567 140.575C128.567 136.856 130.822 134.16 134.549 134.16C137.332 134.16 139.069 135.828 139.069 138.343C139.069 142.061 136.931 144.757 133.087 144.757C130.272 144.757 128.567 143.089 128.567 140.575ZM136.762 138.518C136.762 136.984 135.817 136.057 134.396 136.057C132.131 136.057 130.88 138.055 130.88 140.399C130.88 141.933 131.825 142.86 133.245 142.86C135.51 142.86 136.762 140.863 136.762 138.518Z" fill="black"/>
<path d="M148.593 144.62L145.52 137.497L144.285 144.62H142.088L143.883 134.311H146.339L149.396 141.434L150.642 134.311H152.838L151.043 144.62H148.588H148.593Z" fill="black"/>
<path d="M47.6873 144.62L49.4825 134.311H57.144L56.8166 136.207H51.452L51.0665 138.466H55.9718L55.6444 140.262H50.7497L50.3168 142.723H55.6708L55.354 144.62H47.6925H47.6873Z" fill="url(#paint6_linear_257_28)"/>
<path d="M59.7756 140.575C59.7756 136.856 62.0303 134.16 65.758 134.16C67.9968 134.16 70.0613 135.348 70.0613 137.725C70.0613 137.868 70.0455 138.012 70.0349 138.156H67.8701C67.8701 136.952 67.0094 136.057 65.6049 136.057C63.3397 136.057 62.0883 138.055 62.0883 140.399C62.0883 141.933 63.0335 142.86 64.4538 142.86C65.9587 142.86 67.02 141.992 67.3949 140.676H69.6072C69.264 143.297 67.1942 144.757 64.2954 144.757C61.3966 144.757 59.7756 143.089 59.7756 140.575Z" fill="url(#paint7_linear_257_28)"/>
<path d="M73.3367 140.575C73.3367 136.856 75.5913 134.16 79.3191 134.16C82.1017 134.16 83.8389 135.828 83.8389 138.343C83.8389 142.061 81.7004 144.757 77.8565 144.757C75.0422 144.757 73.3367 143.089 73.3367 140.575ZM81.5314 138.518C81.5314 136.984 80.5863 136.057 79.1659 136.057C76.9008 136.057 75.6494 138.055 75.6494 140.399C75.6494 141.933 76.5945 142.86 78.0149 142.86C80.28 142.86 81.5314 140.863 81.5314 138.518Z" fill="url(#paint8_linear_257_28)"/>
<path d="M89.0943 144.62L87.1724 134.311H89.5273L90.7893 142.302L94.8497 134.311H97.4475L91.935 144.62H89.0943Z" fill="url(#paint9_linear_257_28)"/>
<path d="M105.301 144.62L104.969 142.707H100.734L99.7414 144.62H97.2598L102.772 134.311H105.613L107.535 144.62H105.296H105.301ZM103.955 136.394L101.616 140.928H104.715L103.955 136.394Z" fill="url(#paint10_linear_257_28)"/>
<path d="M112.313 144.62L113.776 136.207H110.75L111.077 134.311H119.457L119.13 136.207H116.088L114.626 144.62H112.313Z" fill="url(#paint11_linear_257_28)"/>
<path d="M121.484 144.62L123.279 134.311H125.592L123.797 144.62H121.484Z" fill="url(#paint12_linear_257_28)"/>
<path d="M128.567 140.575C128.567 136.856 130.822 134.16 134.549 134.16C137.332 134.16 139.069 135.828 139.069 138.343C139.069 142.061 136.931 144.757 133.087 144.757C130.272 144.757 128.567 143.089 128.567 140.575ZM136.762 138.518C136.762 136.984 135.817 136.057 134.396 136.057C132.131 136.057 130.88 138.055 130.88 140.399C130.88 141.933 131.825 142.86 133.245 142.86C135.51 142.86 136.762 140.863 136.762 138.518Z" fill="url(#paint13_linear_257_28)"/>
<path d="M148.593 144.62L145.52 137.497L144.285 144.62H142.088L143.883 134.311H146.339L149.396 141.434L150.642 134.311H152.838L151.043 144.62H148.588H148.593Z" fill="url(#paint14_linear_257_28)"/>
<path d="M68.411 100.58L65.6548 116.425C64.9472 120.479 62.8616 121.758 59.9258 121.758C57.3967 121.758 55.9816 120.554 55.9816 118.002C55.9816 117.511 56.0185 116.989 56.1294 116.425L58.8856 100.58H51.6677L48.7636 117.176C48.6158 117.964 48.5419 118.716 48.5419 119.429C48.5419 124.874 52.5231 127.693 59.4084 127.693C67.1121 127.693 71.3151 125.215 72.7302 117.176L75.6289 100.58H68.411Z" fill="#202020"/>
<path d="M89.6638 100.58H78.9821L74.3303 127.314H86.0153C96.5861 127.314 101.829 121.081 101.829 111.092C101.829 104.262 97.3306 100.58 89.6638 100.58ZM86.8706 121.608H82.5145L85.1916 106.286H89.5477C92.4887 106.286 94.6113 108.199 94.6113 111.694C94.6113 117.139 91.8551 121.608 86.8706 121.608Z" fill="#202020"/>
<path d="M121.701 114.848C125.645 113.644 127.657 111.843 127.657 107C127.657 103.585 124.753 100.58 119.061 100.58H106.594L101.943 127.314H109.161L110.871 117.325H115.117C117.091 117.325 118.021 117.89 118.021 119.541C118.021 119.914 117.947 120.33 117.873 120.82L117.202 124.613C117.128 125.023 117.091 125.364 117.091 125.7C117.091 126.339 117.202 126.867 117.35 127.314H124.346C124.272 127.053 124.272 126.75 124.272 126.377C124.272 125.886 124.309 125.253 124.42 124.613L125.128 120.522C125.202 120.031 125.239 119.584 125.239 119.131C125.239 116.915 124.124 115.338 121.701 114.848ZM116.452 111.917H111.838L112.878 105.983H116.452C119.166 105.983 120.36 106.585 120.36 108.199C120.36 110.639 119.283 111.917 116.452 111.917Z" fill="#202020"/>
<path d="M148.348 100.58H139.414L125.459 127.314H133.199L135.248 123.148H145.407L146.004 127.314H153L148.348 100.58ZM137.967 117.591L143.142 107.037L144.631 117.591H137.967Z" fill="#202020"/>
<path d="M47.7142 106.998C47.7142 103.583 44.8102 100.578 39.1182 100.578H26.6518L22 127.312H29.2179L30.9287 117.323H35.1739C36.8583 117.323 37.777 117.738 38.0146 118.884C38.078 119.188 38.0569 119.507 37.9988 119.811L36.7897 126.295L35.9501 130.972L35.7389 132.102L34.2182 140.226L33.9014 142.091C33.8222 142.507 33.7853 142.842 33.7853 143.178C33.7853 143.817 33.9014 144.345 34.0493 144.792H41.1088C41.0349 144.531 41.0349 144.227 41.0349 143.854C41.0349 143.364 41.0718 142.73 41.188 142.091L41.5101 140.226L43.1786 131.681L43.3159 130.972L44.1554 126.295L44.4828 124.611L45.1903 120.52C45.2643 120.029 45.3012 119.582 45.3012 119.129C45.3012 116.913 44.1871 115.336 41.7635 114.846C45.7078 113.642 47.7195 111.841 47.7195 106.998H47.7142ZM36.5098 111.915H31.895L32.9352 105.98H36.5098C39.2291 105.98 40.4171 106.582 40.4171 108.197C40.4171 110.637 39.34 111.915 36.5098 111.915Z" fill="#202020"/>
<defs>
<linearGradient id="paint0_linear_257_28" x1="60.1866" y1="81.6667" x2="118.862" y2="27.1602" gradientUnits="userSpaceOnUse">
<stop stop-color="#3AA463"/>
<stop offset="1" stop-color="#1C979F"/>
</linearGradient>
<linearGradient id="paint1_linear_257_28" x1="60.1845" y1="81.6818" x2="118.86" y2="27.1753" gradientUnits="userSpaceOnUse">
<stop stop-color="#3AA463"/>
<stop offset="1" stop-color="#1C979F"/>
</linearGradient>
<linearGradient id="paint2_linear_257_28" x1="60.1863" y1="81.6662" x2="118.862" y2="27.1597" gradientUnits="userSpaceOnUse">
<stop stop-color="#3AA463"/>
<stop offset="1" stop-color="#1C979F"/>
</linearGradient>
<linearGradient id="paint3_linear_257_28" x1="60.1863" y1="81.6662" x2="118.862" y2="27.1597" gradientUnits="userSpaceOnUse">
<stop stop-color="#3AA463"/>
<stop offset="1" stop-color="#1C979F"/>
</linearGradient>
<linearGradient id="paint4_linear_257_28" x1="60.187" y1="81.6845" x2="118.863" y2="27.178" gradientUnits="userSpaceOnUse">
<stop stop-color="#3AA463"/>
<stop offset="1" stop-color="#1C979F"/>
</linearGradient>
<linearGradient id="paint5_linear_257_28" x1="60.187" y1="81.6845" x2="118.863" y2="27.178" gradientUnits="userSpaceOnUse">
<stop stop-color="#3AA463"/>
<stop offset="1" stop-color="#1C979F"/>
</linearGradient>
<linearGradient id="paint6_linear_257_28" x1="47.6873" y1="139.468" x2="152.836" y2="139.468" gradientUnits="userSpaceOnUse">
<stop stop-color="#3AA463"/>
<stop offset="1" stop-color="#1C979F"/>
</linearGradient>
<linearGradient id="paint7_linear_257_28" x1="47.6894" y1="139.461" x2="152.838" y2="139.461" gradientUnits="userSpaceOnUse">
<stop stop-color="#3AA463"/>
<stop offset="1" stop-color="#1C979F"/>
</linearGradient>
<linearGradient id="paint8_linear_257_28" x1="47.6911" y1="139.461" x2="152.84" y2="139.461" gradientUnits="userSpaceOnUse">
<stop stop-color="#3AA463"/>
<stop offset="1" stop-color="#1C979F"/>
</linearGradient>
<linearGradient id="paint9_linear_257_28" x1="47.6875" y1="139.468" x2="152.836" y2="139.468" gradientUnits="userSpaceOnUse">
<stop stop-color="#3AA463"/>
<stop offset="1" stop-color="#1C979F"/>
</linearGradient>
<linearGradient id="paint10_linear_257_28" x1="47.6899" y1="139.468" x2="152.838" y2="139.468" gradientUnits="userSpaceOnUse">
<stop stop-color="#3AA463"/>
<stop offset="1" stop-color="#1C979F"/>
</linearGradient>
<linearGradient id="paint11_linear_257_28" x1="47.6947" y1="139.468" x2="152.843" y2="139.468" gradientUnits="userSpaceOnUse">
<stop stop-color="#3AA463"/>
<stop offset="1" stop-color="#1C979F"/>
</linearGradient>
<linearGradient id="paint12_linear_257_28" x1="47.694" y1="139.468" x2="152.843" y2="139.468" gradientUnits="userSpaceOnUse">
<stop stop-color="#3AA463"/>
<stop offset="1" stop-color="#1C979F"/>
</linearGradient>
<linearGradient id="paint13_linear_257_28" x1="47.6911" y1="139.461" x2="152.84" y2="139.461" gradientUnits="userSpaceOnUse">
<stop stop-color="#3AA463"/>
<stop offset="1" stop-color="#1C979F"/>
</linearGradient>
<linearGradient id="paint14_linear_257_28" x1="47.6953" y1="139.468" x2="152.844" y2="139.468" gradientUnits="userSpaceOnUse">
<stop stop-color="#3AA463"/>
<stop offset="1" stop-color="#1C979F"/>
</linearGradient>
</defs>
</svg>
