<svg width="508" height="508" viewBox="0 0 508 508" fill="none" xmlns="http://www.w3.org/2000/svg">
<g filter="url(#filter0_d_69_144)">
<rect x="4" y="4" width="500" height="500" rx="11" fill="white"/>
<path d="M200.742 436.232H194.705C194.624 435.612 194.459 435.052 194.21 434.553C193.96 434.054 193.63 433.628 193.22 433.273C192.809 432.919 192.322 432.65 191.759 432.464C191.203 432.271 190.587 432.175 189.911 432.175C188.712 432.175 187.678 432.469 186.808 433.056C185.947 433.644 185.283 434.493 184.816 435.604C184.357 436.714 184.128 438.059 184.128 439.636C184.128 441.278 184.361 442.655 184.828 443.766C185.303 444.868 185.967 445.701 186.82 446.265C187.682 446.82 188.7 447.098 189.875 447.098C190.535 447.098 191.135 447.013 191.674 446.844C192.221 446.675 192.7 446.43 193.111 446.108C193.529 445.778 193.872 445.379 194.137 444.913C194.411 444.438 194.6 443.902 194.705 443.307L200.742 443.343C200.637 444.438 200.319 445.516 199.788 446.579C199.265 447.641 198.544 448.611 197.627 449.489C196.709 450.358 195.59 451.05 194.27 451.565C192.958 452.08 191.453 452.338 189.754 452.338C187.517 452.338 185.512 451.847 183.742 450.865C181.979 449.875 180.586 448.434 179.564 446.543C178.542 444.651 178.031 442.349 178.031 439.636C178.031 436.916 178.55 434.61 179.588 432.718C180.627 430.826 182.031 429.39 183.802 428.408C185.573 427.426 187.557 426.935 189.754 426.935C191.252 426.935 192.636 427.144 193.908 427.562C195.18 427.973 196.298 428.577 197.264 429.374C198.23 430.162 199.015 431.132 199.619 432.283C200.222 433.434 200.597 434.75 200.742 436.232ZM208.879 452H202.456L210.799 427.273H218.756L227.099 452H220.676L214.868 433.503H214.675L208.879 452ZM208.022 442.268H221.448V446.808H208.022V442.268ZM229.761 452V427.273H239.976C241.827 427.273 243.425 427.607 244.769 428.275C246.121 428.935 247.164 429.885 247.896 431.124C248.629 432.356 248.995 433.817 248.995 435.507C248.995 437.222 248.62 438.679 247.872 439.878C247.123 441.069 246.061 441.979 244.684 442.607C243.308 443.226 241.678 443.536 239.794 443.536H233.335V438.827H238.684C239.585 438.827 240.338 438.711 240.941 438.477C241.553 438.236 242.016 437.874 242.33 437.391C242.644 436.9 242.801 436.272 242.801 435.507C242.801 434.742 242.644 434.111 242.33 433.612C242.016 433.104 241.553 432.726 240.941 432.477C240.33 432.219 239.577 432.09 238.684 432.09H235.738V452H229.761ZM243.682 440.699L249.84 452H243.32L237.283 440.699H243.682ZM252.273 452V427.273H262.487C264.339 427.273 265.936 427.635 267.281 428.359C268.633 429.076 269.675 430.078 270.408 431.366C271.14 432.646 271.506 434.135 271.506 435.833C271.506 437.54 271.132 439.033 270.384 440.312C269.643 441.584 268.585 442.57 267.208 443.271C265.832 443.971 264.198 444.321 262.306 444.321H256.004V439.612H261.195C262.097 439.612 262.85 439.455 263.453 439.141C264.065 438.827 264.528 438.389 264.842 437.825C265.156 437.254 265.313 436.59 265.313 435.833C265.313 435.068 265.156 434.408 264.842 433.853C264.528 433.29 264.065 432.855 263.453 432.549C262.841 432.243 262.089 432.09 261.195 432.09H258.249V452H252.273ZM274.453 452V427.273H291.694V432.126H280.429V437.197H290.813V442.063H280.429V447.146H291.694V452H274.453ZM294.628 432.126V427.273H315.528V432.126H308.03V452H302.138V432.126H294.628Z" fill="black"/>
<path d="M366.502 68H141.499V367.999H366.502V68Z" fill="#ED5564"/>
<path d="M335.246 68C335.246 71.4512 338.048 74.2438 341.509 74.2438C344.951 74.2438 347.753 71.4512 347.753 68H335.246Z" fill="#DA4453"/>
<path d="M316.496 74.2438C319.957 74.2438 322.759 71.4512 322.759 68H310.252C310.253 71.4518 313.053 74.2438 316.496 74.2438Z" fill="#DA4453"/>
<path d="M291.502 74.2438C294.963 74.2438 297.746 71.4512 297.746 68H285.259C285.259 71.4518 288.061 74.2438 291.502 74.2438Z" fill="#DA4453"/>
<path d="M266.509 74.2438C269.951 74.2438 272.753 71.4512 272.753 68H260.251C260.251 71.4518 263.044 74.2438 266.509 74.2438Z" fill="#DA4453"/>
<path d="M241.501 74.2438C244.953 74.2438 247.754 71.4512 247.754 68H235.249C235.248 71.4518 238.05 74.2438 241.501 74.2438Z" fill="#DA4453"/>
<path d="M216.499 74.2438C219.959 74.2438 222.751 71.4512 222.751 68H210.254C210.254 71.4518 213.056 74.2438 216.499 74.2438Z" fill="#DA4453"/>
<path d="M191.505 74.2438C194.947 74.2438 197.749 71.4512 197.749 68H185.251C185.251 71.4518 188.044 74.2438 191.505 74.2438Z" fill="#DA4453"/>
<path d="M166.502 74.2438C169.954 74.2438 172.754 71.4512 172.754 68H160.249C160.249 71.4518 163.05 74.2438 166.502 74.2438Z" fill="#DA4453"/>
<path d="M172.754 368C172.754 364.548 169.953 361.747 166.502 361.747C163.051 361.747 160.249 364.548 160.249 368H172.754Z" fill="#DA4453"/>
<path d="M191.505 361.747C188.044 361.747 185.252 364.548 185.252 368H197.749C197.749 364.548 194.947 361.747 191.505 361.747Z" fill="#DA4453"/>
<path d="M216.499 361.747C213.057 361.747 210.255 364.548 210.255 368H222.752C222.752 364.548 219.96 361.747 216.499 361.747Z" fill="#DA4453"/>
<path d="M241.501 361.747C238.05 361.747 235.249 364.548 235.249 368H247.754C247.754 364.548 244.953 361.747 241.501 361.747Z" fill="#DA4453"/>
<path d="M266.509 361.747C263.044 361.747 260.251 364.548 260.251 368H272.753C272.753 364.548 269.951 361.747 266.509 361.747Z" fill="#DA4453"/>
<path d="M291.502 361.747C288.061 361.747 285.26 364.548 285.26 368H297.747C297.746 364.548 294.962 361.747 291.502 361.747Z" fill="#DA4453"/>
<path d="M316.496 361.747C313.053 361.747 310.252 364.548 310.252 368H322.759C322.759 364.548 319.957 361.747 316.496 361.747Z" fill="#DA4453"/>
<path d="M341.509 361.747C338.048 361.747 335.246 364.548 335.246 368H347.753C347.753 364.548 344.951 361.747 341.509 361.747Z" fill="#DA4453"/>
<path d="M360.258 330.499C360.258 333.951 363.041 336.743 366.502 336.743V324.246C363.041 324.246 360.258 327.048 360.258 330.499Z" fill="#DA4453"/>
<path d="M360.258 305.497C360.258 308.949 363.041 311.75 366.502 311.75V299.244C363.041 299.244 360.258 302.046 360.258 305.497Z" fill="#DA4453"/>
<path d="M360.258 280.494C360.258 283.945 363.041 286.747 366.502 286.747V274.25C363.041 274.25 360.258 277.042 360.258 280.494Z" fill="#DA4453"/>
<path d="M360.258 255.499C360.258 258.951 363.041 261.743 366.502 261.743V249.246C363.041 249.246 360.258 252.048 360.258 255.499Z" fill="#DA4453"/>
<path d="M360.258 230.497C360.258 233.949 363.041 236.75 366.502 236.75V224.244C363.041 224.244 360.258 227.046 360.258 230.497Z" fill="#DA4453"/>
<path d="M360.258 205.494C360.258 208.945 363.041 211.746 366.502 211.746V199.25C363.041 199.25 360.258 202.042 360.258 205.494Z" fill="#DA4453"/>
<path d="M360.258 180.499C360.258 183.951 363.041 186.743 366.502 186.743V174.246C363.041 174.247 360.258 177.048 360.258 180.499Z" fill="#DA4453"/>
<path d="M360.258 155.497C360.258 158.949 363.041 161.75 366.502 161.75V149.244C363.041 149.244 360.258 152.045 360.258 155.497Z" fill="#DA4453"/>
<path d="M360.258 130.494C360.258 133.946 363.041 136.747 366.502 136.747V124.25C363.041 124.25 360.258 127.042 360.258 130.494Z" fill="#DA4453"/>
<path d="M360.258 105.5C360.258 108.952 363.041 111.744 366.502 111.744V99.2473C363.041 99.2473 360.258 102.039 360.258 105.5Z" fill="#DA4453"/>
<path d="M147.752 105.5C147.752 102.039 144.959 99.2473 141.498 99.2473V111.744C144.959 111.744 147.752 108.952 147.752 105.5Z" fill="#DA4453"/>
<path d="M147.752 130.494C147.752 127.042 144.959 124.25 141.498 124.25V136.747C144.959 136.747 147.752 133.945 147.752 130.494Z" fill="#DA4453"/>
<path d="M147.752 155.497C147.752 152.045 144.959 149.244 141.498 149.244V161.75C144.959 161.75 147.752 158.948 147.752 155.497Z" fill="#DA4453"/>
<path d="M147.752 180.499C147.752 177.048 144.959 174.247 141.498 174.247V186.744C144.959 186.744 147.752 183.951 147.752 180.499Z" fill="#DA4453"/>
<path d="M147.751 205.494C147.751 202.042 144.959 199.25 141.499 199.25V211.746C144.959 211.747 147.751 208.945 147.751 205.494Z" fill="#DA4453"/>
<path d="M147.752 230.497C147.752 227.045 144.959 224.244 141.498 224.244V236.75C144.959 236.75 147.752 233.949 147.752 230.497Z" fill="#DA4453"/>
<path d="M147.752 255.499C147.752 252.048 144.959 249.246 141.498 249.246V261.743C144.959 261.743 147.752 258.951 147.752 255.499Z" fill="#DA4453"/>
<path d="M147.752 280.494C147.752 277.042 144.959 274.25 141.498 274.25V286.747C144.959 286.747 147.752 283.945 147.752 280.494Z" fill="#DA4453"/>
<path d="M147.752 305.497C147.752 302.045 144.959 299.244 141.498 299.244V311.75C144.959 311.75 147.752 308.949 147.752 305.497Z" fill="#DA4453"/>
<path d="M147.752 330.499C147.752 327.048 144.959 324.246 141.498 324.246V336.743C144.959 336.743 147.752 333.951 147.752 330.499Z" fill="#DA4453"/>
<path d="M347.752 86.748H160.249V349.246H347.752V86.748Z" fill="#FFCE54"/>
<path d="M291.502 111.744H216.499C199.268 111.744 185.252 125.761 185.252 143V293C185.252 310.23 199.268 324.246 216.499 324.246H291.502C308.733 324.246 322.759 310.23 322.759 293V143C322.758 125.761 308.732 111.744 291.502 111.744Z" fill="#FC6E51"/>
<path d="M204.002 114.362V321.627C207.837 323.303 212.058 324.246 216.499 324.246V111.744C212.058 111.744 207.837 112.686 204.002 114.362Z" fill="#E9573F"/>
<path d="M247.754 111.744V190.909C247.754 195.514 250.556 199.241 253.998 199.241C257.459 199.241 260.251 195.515 260.251 190.909V111.744H247.754Z" fill="#E9573F"/>
<path d="M253.998 230.497C250.556 230.497 247.754 233.298 247.754 236.75V324.246H260.251V236.75C260.251 233.298 257.458 230.497 253.998 230.497Z" fill="#E9573F"/>
<path d="M304.008 321.627V114.362C300.181 112.687 295.951 111.743 291.502 111.743V324.246C295.951 324.246 300.181 323.303 304.008 321.627Z" fill="#E9573F"/>
<path d="M291.502 218C291.502 238.71 274.713 255.5 253.999 255.5C233.29 255.5 216.499 238.71 216.499 218C216.499 197.282 233.29 180.5 253.999 180.5C274.712 180.499 291.502 197.282 291.502 218Z" fill="#FFCE54"/>
<path d="M266.509 218C266.509 224.904 260.901 230.498 253.998 230.498C247.095 230.498 241.501 224.904 241.501 218C241.501 211.088 247.095 205.494 253.998 205.494C260.901 205.494 266.509 211.088 266.509 218Z" fill="#ED5564"/>
</g>
<defs>
<filter id="filter0_d_69_144" x="0" y="0" width="508" height="508" filterUnits="userSpaceOnUse" color-interpolation-filters="sRGB">
<feFlood flood-opacity="0" result="BackgroundImageFix"/>
<feColorMatrix in="SourceAlpha" type="matrix" values="0 0 0 0 0 0 0 0 0 0 0 0 0 0 0 0 0 0 127 0" result="hardAlpha"/>
<feOffset/>
<feGaussianBlur stdDeviation="2"/>
<feComposite in2="hardAlpha" operator="out"/>
<feColorMatrix type="matrix" values="0 0 0 0 0 0 0 0 0 0 0 0 0 0 0 0 0 0 0.25 0"/>
<feBlend mode="normal" in2="BackgroundImageFix" result="effect1_dropShadow_69_144"/>
<feBlend mode="normal" in="SourceGraphic" in2="effect1_dropShadow_69_144" result="shape"/>
</filter>
</defs>
</svg>
