<svg width="508" height="508" viewBox="0 0 508 508" fill="none" xmlns="http://www.w3.org/2000/svg">
<g filter="url(#filter0_d_69_156)">
<rect x="4" y="4" width="500" height="500" rx="11" fill="white"/>
<path d="M83.182 450V425.273H100.423V430.126H89.1586V435.197H99.5421V440.063H89.1586V445.146H100.423V450H83.182ZM110.215 425.273L114.731 433.085H114.924L119.488 425.273H126.177L118.715 437.636L126.419 450H119.561L114.924 442.104H114.731L110.095 450H103.285L110.952 437.636L103.478 425.273H110.215ZM129.268 450V425.273H135.244V435.197H144.988V425.273H150.953V450H144.988V440.063H135.244V450H129.268ZM160.678 425.273V450H154.702V425.273H160.678ZM164.43 450V425.273H174.741C176.592 425.273 178.142 425.534 179.39 426.058C180.645 426.581 181.587 427.313 182.215 428.255C182.851 429.197 183.169 430.287 183.169 431.527C183.169 432.469 182.971 433.31 182.577 434.05C182.183 434.783 181.639 435.391 180.947 435.874C180.255 436.357 179.454 436.695 178.544 436.888V437.129C179.542 437.178 180.464 437.447 181.309 437.938C182.163 438.429 182.847 439.113 183.362 439.991C183.877 440.86 184.135 441.89 184.135 443.082C184.135 444.41 183.797 445.597 183.12 446.643C182.444 447.682 181.466 448.503 180.186 449.107C178.907 449.702 177.353 450 175.526 450H164.43ZM170.407 445.183H174.101C175.397 445.183 176.351 444.937 176.963 444.446C177.583 443.955 177.892 443.271 177.892 442.393C177.892 441.758 177.743 441.21 177.446 440.751C177.148 440.285 176.725 439.926 176.178 439.677C175.631 439.419 174.975 439.29 174.21 439.29H170.407V445.183ZM170.407 435.439H173.715C174.367 435.439 174.946 435.33 175.453 435.113C175.961 434.896 176.355 434.582 176.637 434.171C176.926 433.761 177.071 433.266 177.071 432.686C177.071 431.857 176.778 431.205 176.19 430.73C175.602 430.255 174.81 430.018 173.811 430.018H170.407V435.439ZM192.985 425.273V450H187.008V425.273H192.985ZM195.928 430.126V425.273H216.828V430.126H209.33V450H203.438V430.126H195.928ZM225.723 425.273V450H219.746V425.273H225.723ZM252.814 437.636C252.814 440.357 252.291 442.663 251.244 444.555C250.198 446.446 248.781 447.883 246.994 448.865C245.215 449.847 243.219 450.338 241.006 450.338C238.784 450.338 236.784 449.843 235.005 448.853C233.226 447.863 231.813 446.426 230.767 444.543C229.729 442.651 229.209 440.349 229.209 437.636C229.209 434.916 229.729 432.61 230.767 430.718C231.813 428.826 233.226 427.39 235.005 426.408C236.784 425.426 238.784 424.935 241.006 424.935C243.219 424.935 245.215 425.426 246.994 426.408C248.781 427.39 250.198 428.826 251.244 430.718C252.291 432.61 252.814 434.916 252.814 437.636ZM246.704 437.636C246.704 436.027 246.475 434.666 246.016 433.555C245.565 432.445 244.913 431.603 244.06 431.032C243.215 430.46 242.197 430.175 241.006 430.175C239.822 430.175 238.804 430.46 237.951 431.032C237.098 431.603 236.442 432.445 235.983 433.555C235.532 434.666 235.307 436.027 235.307 437.636C235.307 439.246 235.532 440.607 235.983 441.717C236.442 442.828 237.098 443.669 237.951 444.241C238.804 444.812 239.822 445.098 241.006 445.098C242.197 445.098 243.215 444.812 244.06 444.241C244.913 443.669 245.565 442.828 246.016 441.717C246.475 440.607 246.704 439.246 246.704 437.636ZM277.348 425.273V450H272.277L262.437 435.729H262.28V450H256.303V425.273H261.447L271.178 439.52H271.383V425.273H277.348ZM310.856 434.232H304.819C304.738 433.612 304.573 433.052 304.324 432.553C304.074 432.054 303.744 431.628 303.334 431.273C302.923 430.919 302.436 430.65 301.873 430.464C301.317 430.271 300.702 430.175 300.026 430.175C298.826 430.175 297.792 430.469 296.923 431.056C296.061 431.644 295.397 432.493 294.93 433.604C294.472 434.714 294.242 436.059 294.242 437.636C294.242 439.278 294.476 440.655 294.942 441.766C295.417 442.868 296.081 443.701 296.935 444.265C297.796 444.82 298.814 445.098 299.989 445.098C300.649 445.098 301.249 445.013 301.788 444.844C302.336 444.675 302.815 444.43 303.225 444.108C303.644 443.778 303.986 443.379 304.251 442.913C304.525 442.438 304.714 441.902 304.819 441.307L310.856 441.343C310.751 442.438 310.433 443.516 309.902 444.579C309.379 445.641 308.658 446.611 307.741 447.489C306.823 448.358 305.704 449.05 304.384 449.565C303.072 450.08 301.567 450.338 299.869 450.338C297.631 450.338 295.627 449.847 293.856 448.865C292.093 447.875 290.701 446.434 289.678 444.543C288.656 442.651 288.145 440.349 288.145 437.636C288.145 434.916 288.664 432.61 289.702 430.718C290.741 428.826 292.145 427.39 293.916 426.408C295.687 425.426 297.671 424.935 299.869 424.935C301.366 424.935 302.75 425.144 304.022 425.562C305.294 425.973 306.413 426.577 307.379 427.374C308.344 428.162 309.129 429.132 309.733 430.283C310.337 431.434 310.711 432.75 310.856 434.232ZM318.994 450H312.57L320.913 425.273H328.87L337.213 450H330.79L324.982 431.503H324.789L318.994 450ZM318.136 440.268H331.562V444.808H318.136V440.268ZM339.875 450V425.273H350.09C351.941 425.273 353.539 425.607 354.883 426.275C356.235 426.935 357.278 427.885 358.01 429.124C358.743 430.356 359.109 431.817 359.109 433.507C359.109 435.222 358.735 436.679 357.986 437.878C357.238 439.069 356.175 439.979 354.799 440.607C353.422 441.226 351.792 441.536 349.909 441.536H343.449V436.827H348.798C349.699 436.827 350.452 436.711 351.056 436.477C351.667 436.236 352.13 435.874 352.444 435.391C352.758 434.9 352.915 434.272 352.915 433.507C352.915 432.742 352.758 432.111 352.444 431.612C352.13 431.104 351.667 430.726 351.056 430.477C350.444 430.219 349.691 430.09 348.798 430.09H345.852V450H339.875ZM353.797 438.699L359.954 450H353.434L347.397 438.699H353.797ZM362.387 450V425.273H372.602C374.453 425.273 376.051 425.635 377.395 426.359C378.747 427.076 379.79 428.078 380.522 429.366C381.254 430.646 381.621 432.135 381.621 433.833C381.621 435.54 381.246 437.033 380.498 438.312C379.757 439.584 378.699 440.57 377.322 441.271C375.946 441.971 374.312 442.321 372.42 442.321H366.118V437.612H371.31C372.211 437.612 372.964 437.455 373.567 437.141C374.179 436.827 374.642 436.389 374.956 435.825C375.27 435.254 375.427 434.59 375.427 433.833C375.427 433.068 375.27 432.408 374.956 431.853C374.642 431.29 374.179 430.855 373.567 430.549C372.956 430.243 372.203 430.09 371.31 430.09H368.364V450H362.387ZM384.567 450V425.273H401.808V430.126H390.543V435.197H400.927V440.063H390.543V445.146H401.808V450H384.567ZM404.742 430.126V425.273H425.642V430.126H418.144V450H412.252V430.126H404.742Z" fill="black"/>
<path d="M348.484 92.7434H159.517V350.844H348.484V92.7434Z" fill="#4CC18E"/>
<path d="M254.003 257.993C267.907 257.993 280.752 262.641 291.03 270.469C280.759 278.304 267.922 282.952 254.003 282.952C240.091 282.952 227.254 278.304 216.976 270.469C227.246 262.641 240.083 257.993 254.003 257.993Z" fill="#F24125"/>
<path d="M205.322 184.769C213.15 195.047 217.797 207.884 217.797 221.795C217.797 235.707 213.15 248.544 205.322 258.815C197.486 248.544 192.839 235.707 192.839 221.795C192.839 207.884 197.486 195.047 205.322 184.769Z" fill="#F24125"/>
<path d="M291.03 173.115C280.751 180.943 267.907 185.591 254.003 185.591C240.083 185.591 227.246 180.943 216.976 173.115C227.255 165.28 240.091 160.632 254.003 160.632C267.922 160.632 280.759 165.28 291.03 173.115Z" fill="#F24125"/>
<path d="M302.683 184.769C310.511 195.047 315.158 207.884 315.158 221.795C315.158 235.707 310.511 248.544 302.683 258.815C294.847 248.544 290.2 235.707 290.2 221.795C290.2 207.884 294.847 195.047 302.683 184.769Z" fill="#F24125"/>
<path d="M348.483 153.903V289.689C314.705 289.689 287.319 317.068 287.319 350.846H220.678C220.678 317.068 193.292 289.689 159.515 289.689V153.903C193.292 153.903 220.678 126.524 220.678 92.7468H287.319C287.319 126.524 314.705 153.903 348.483 153.903ZM315.158 221.796C315.158 207.884 310.511 195.047 302.683 184.769C299.342 180.383 295.424 176.457 291.03 173.116C280.759 165.28 267.922 160.633 254.003 160.633C240.091 160.633 227.254 165.28 216.976 173.116C212.589 176.457 208.664 180.384 205.323 184.769C197.487 195.048 192.84 207.884 192.84 221.796C192.84 235.708 197.487 248.545 205.323 258.815C208.664 263.21 212.59 267.135 216.976 270.469C227.255 278.304 240.091 282.952 254.003 282.952C267.923 282.952 280.759 278.304 291.03 270.469C295.424 267.127 299.342 263.21 302.683 258.815C310.511 248.544 315.158 235.708 315.158 221.796Z" fill="#F7B239"/>
<path d="M291.03 173.115C295.424 176.457 299.341 180.383 302.683 184.769C294.847 195.047 290.2 207.884 290.2 221.796C290.2 235.707 294.847 248.544 302.683 258.815C299.341 263.209 295.424 267.127 291.03 270.468C280.751 262.64 267.907 257.993 254.003 257.993C240.083 257.993 227.246 262.64 216.976 270.468C212.589 267.134 208.664 263.209 205.323 258.815C213.151 248.544 217.798 235.707 217.798 221.796C217.798 207.884 213.151 195.047 205.323 184.769C208.664 180.382 212.59 176.457 216.976 173.115C227.246 180.944 240.083 185.591 254.003 185.591C267.907 185.591 280.751 180.944 291.03 173.115ZM268.321 221.796C268.321 213.884 261.907 207.477 254.002 207.477C246.09 207.477 239.683 213.884 239.683 221.796C239.683 229.701 246.09 236.116 254.002 236.116C261.907 236.115 268.321 229.701 268.321 221.796Z" fill="#F7B239"/>
<path d="M254.003 207.477C261.908 207.477 268.322 213.884 268.322 221.796C268.322 229.701 261.908 236.116 254.003 236.116C246.09 236.116 239.683 229.701 239.683 221.796C239.683 213.884 246.09 207.477 254.003 207.477Z" fill="#F24125"/>
<path d="M254.003 240.232C243.837 240.232 235.566 231.962 235.566 221.796C235.566 211.63 243.837 203.359 254.003 203.359C264.169 203.359 272.44 211.63 272.44 221.796C272.439 231.962 264.169 240.232 254.003 240.232ZM254.003 211.594C248.378 211.594 243.801 216.171 243.801 221.796C243.801 227.422 248.378 231.997 254.003 231.997C259.628 231.997 264.205 227.422 264.205 221.796C264.205 216.171 259.628 211.594 254.003 211.594Z" fill="#333333"/>
<path d="M305.958 182.273C302.379 177.575 298.195 173.391 293.527 169.841C282.099 161.123 268.431 156.515 254.003 156.515C239.583 156.515 225.916 161.123 214.481 169.84C209.798 173.408 205.614 177.591 202.048 182.273C193.33 193.709 188.722 207.376 188.722 221.796C188.722 236.22 193.33 249.885 202.045 261.308C205.614 266.001 209.799 270.186 214.48 273.744C225.916 282.462 239.583 287.069 254.004 287.069C268.433 287.069 282.1 282.461 293.523 273.746C298.211 270.181 302.395 265.996 305.961 261.308C314.672 249.877 319.277 236.214 319.277 221.796C319.276 207.38 314.671 193.713 305.958 182.273ZM283.738 173.113C274.812 178.592 264.644 181.473 254.002 181.473C243.355 181.473 233.187 178.592 224.266 173.115C233.19 167.633 243.358 164.75 254.002 164.75C264.651 164.75 274.818 167.632 283.738 173.113ZM196.957 221.796C196.957 211.152 199.839 200.986 205.321 192.061C210.799 200.988 213.68 211.155 213.68 221.796C213.68 232.44 210.799 242.606 205.32 251.527C199.839 242.608 196.957 232.442 196.957 221.796ZM224.267 270.469C233.187 264.992 243.356 262.111 254.003 262.111C264.645 262.111 274.813 264.992 283.739 270.471C274.821 275.953 264.653 278.834 254.003 278.834C243.359 278.834 233.192 275.952 224.267 270.469ZM290.886 265.294C280.008 257.818 267.327 253.876 254.002 253.876C240.67 253.876 227.989 257.818 217.117 265.294C214.734 263.275 212.52 261.061 210.496 258.673C217.972 247.802 221.914 235.123 221.914 221.796C221.914 208.471 217.972 195.791 210.497 184.914C212.52 182.53 214.735 180.316 217.119 178.292C227.99 185.766 240.67 189.708 254.001 189.708C267.326 189.708 280.007 185.766 290.885 178.29C293.265 180.308 295.479 182.523 297.506 184.913C290.026 195.787 286.081 208.468 286.081 221.796C286.081 235.127 290.026 247.806 297.506 258.673C295.485 261.058 293.272 263.272 290.886 265.294ZM302.682 251.527C297.2 242.609 294.317 232.443 294.317 221.796C294.317 211.152 297.2 200.985 302.682 192.061C308.16 200.988 311.041 211.155 311.041 221.796C311.041 232.44 308.16 242.605 302.682 251.527Z" fill="#333333"/>
<path d="M352.6 92.7564C352.6 92.7516 352.601 92.7475 352.601 92.7434V76.1175C352.601 73.844 350.757 72 348.483 72C346.21 72 344.366 73.844 344.366 76.1175V88.6293H331.605V76.1175C331.605 73.844 329.761 72 327.488 72C325.214 72 323.37 73.844 323.37 76.1175V88.6293H310.608V76.1175C310.608 73.844 308.764 72 306.491 72C304.217 72 302.373 73.844 302.373 76.1175V88.6293H289.612V76.1175C289.612 73.844 287.769 72 285.495 72C283.221 72 281.377 73.844 281.377 76.1175V88.6293H268.616V76.1175C268.616 73.844 266.772 72 264.498 72C262.225 72 260.381 73.844 260.381 76.1175V88.6293H247.619V76.1175C247.619 73.844 245.775 72 243.502 72C241.228 72 239.384 73.844 239.384 76.1175V88.6293H226.623V76.1175C226.623 73.844 224.779 72 222.506 72C220.232 72 218.388 73.844 218.388 76.1175V88.6293H205.627V76.1175C205.627 73.844 203.783 72 201.509 72C199.236 72 197.392 73.844 197.392 76.1175V88.6293H184.631V76.1175C184.631 73.844 182.787 72 180.513 72C178.24 72 176.396 73.844 176.396 76.1175V88.6293H163.635V76.1175C163.635 73.844 161.791 72 159.517 72C157.244 72 155.4 73.844 155.4 76.1175V92.7002C155.4 92.7159 155.398 92.731 155.398 92.7468V350.845C155.398 350.922 155.405 350.997 155.409 351.073C155.407 351.134 155.4 351.194 155.4 351.256V367.882C155.4 370.156 157.244 372 159.518 372C161.792 372 163.635 370.156 163.635 367.882V354.963H176.397V367.882C176.397 370.156 178.241 372 180.515 372C182.788 372 184.632 370.156 184.632 367.882V354.963H197.393V367.882C197.393 370.156 199.237 372 201.511 372C203.784 372 205.628 370.156 205.628 367.882V354.963H218.39V367.882C218.39 370.156 220.234 372 222.507 372C224.781 372 226.625 370.156 226.625 367.882V354.963H239.386V367.882C239.386 370.156 241.23 372 243.503 372C245.777 372 247.621 370.156 247.621 367.882V354.963H260.382V367.882C260.382 370.156 262.226 372 264.5 372C266.773 372 268.617 370.156 268.617 367.882V354.963H281.379V367.882C281.379 370.156 283.223 372 285.496 372C287.77 372 289.614 370.156 289.614 367.882V354.963H302.375V367.882C302.375 370.156 304.219 372 306.492 372C308.766 372 310.61 370.156 310.61 367.882V354.963H323.371V367.882C323.371 370.156 325.215 372 327.489 372C329.762 372 331.606 370.156 331.606 367.882V354.963H344.367V367.882C344.367 370.156 346.211 372 348.485 372C350.758 372 352.602 370.156 352.602 367.882V351.256C352.602 351.185 352.595 351.115 352.591 351.044C352.595 350.977 352.602 350.912 352.602 350.845V92.7564H352.6ZM344.365 96.8643V149.62C316.188 147.599 293.624 125.037 291.601 96.8643H344.365ZM216.396 96.8643C214.374 125.037 191.809 147.599 163.632 149.62V96.8643H216.396ZM163.632 346.727V293.972C191.809 295.993 214.374 318.555 216.396 346.727H163.632ZM224.662 346.727C222.615 314.009 196.355 287.752 163.632 285.705V157.887C196.355 155.84 222.615 129.583 224.662 96.8643H283.335C285.382 129.583 311.642 155.84 344.365 157.887V285.705C311.642 287.751 285.382 314.009 283.335 346.727H224.662ZM291.601 346.727C293.623 318.555 316.188 295.993 344.365 293.972V346.727H291.601Z" fill="#333333"/>
<path d="M183.584 120.159C183.317 120.159 183.042 120.131 182.774 120.076C182.514 120.021 182.253 119.946 182.006 119.843C181.759 119.74 181.519 119.61 181.299 119.459C181.073 119.315 180.86 119.136 180.668 118.951C180.482 118.759 180.311 118.553 180.16 118.326C180.009 118.1 179.885 117.86 179.782 117.613C179.679 117.366 179.597 117.105 179.542 116.844C179.494 116.576 179.467 116.309 179.467 116.041C179.467 115.773 179.494 115.499 179.542 115.231C179.597 114.971 179.679 114.71 179.782 114.463C179.885 114.216 180.009 113.975 180.16 113.756C180.311 113.529 180.482 113.317 180.668 113.125C180.86 112.939 181.073 112.768 181.299 112.617C181.519 112.466 181.759 112.342 182.006 112.239C182.253 112.136 182.514 112.054 182.774 111.999C183.31 111.896 183.859 111.896 184.387 111.999C184.648 112.054 184.909 112.136 185.156 112.239C185.403 112.342 185.643 112.466 185.869 112.617C186.096 112.768 186.302 112.939 186.494 113.125C187.263 113.893 187.702 114.957 187.702 116.041C187.702 117.119 187.263 118.182 186.494 118.951C186.302 119.136 186.096 119.315 185.869 119.459C185.643 119.61 185.403 119.74 185.156 119.843C184.909 119.946 184.648 120.021 184.387 120.076C184.12 120.131 183.853 120.159 183.584 120.159Z" fill="#333333"/>
<path d="M324.418 120.159C324.15 120.159 323.883 120.131 323.615 120.076C323.354 120.021 323.093 119.946 322.846 119.843C322.592 119.74 322.352 119.61 322.133 119.459C321.906 119.314 321.694 119.136 321.508 118.951C321.316 118.759 321.145 118.546 320.994 118.326C320.849 118.1 320.719 117.86 320.616 117.613C320.513 117.366 320.438 117.105 320.383 116.844C320.328 116.576 320.3 116.309 320.3 116.041C320.3 115.773 320.328 115.499 320.383 115.231C320.438 114.97 320.513 114.71 320.616 114.463C320.719 114.216 320.849 113.975 320.994 113.749C321.145 113.529 321.316 113.317 321.508 113.124C321.694 112.939 321.906 112.768 322.133 112.617C322.352 112.466 322.592 112.342 322.846 112.239C323.093 112.136 323.354 112.054 323.615 111.999C324.953 111.731 326.374 112.171 327.328 113.124C327.52 113.317 327.691 113.529 327.842 113.749C327.993 113.975 328.117 114.216 328.22 114.463C328.323 114.71 328.405 114.97 328.453 115.231C328.508 115.499 328.535 115.773 328.535 116.041C328.535 116.309 328.508 116.576 328.453 116.844C328.405 117.105 328.323 117.366 328.22 117.613C328.117 117.86 327.993 118.1 327.842 118.326C327.691 118.546 327.52 118.759 327.328 118.951C326.566 119.719 325.502 120.159 324.418 120.159Z" fill="#333333"/>
<path d="M183.584 331.669C183.317 331.669 183.042 331.641 182.774 331.587C182.514 331.532 182.253 331.456 182.006 331.353C181.759 331.25 181.519 331.12 181.299 330.969C181.073 330.825 180.86 330.646 180.668 330.461C180.482 330.269 180.311 330.063 180.16 329.837C180.009 329.61 179.885 329.37 179.782 329.123C179.679 328.876 179.597 328.615 179.542 328.354C179.494 328.087 179.467 327.819 179.467 327.551C179.467 327.277 179.494 327.009 179.542 326.742C179.597 326.481 179.679 326.22 179.782 325.973C179.885 325.726 180.009 325.486 180.16 325.259C180.311 325.04 180.482 324.827 180.668 324.635C180.86 324.449 181.073 324.278 181.299 324.127C181.519 323.976 181.759 323.852 182.006 323.743C182.253 323.64 182.514 323.564 182.774 323.509C183.31 323.406 183.859 323.406 184.387 323.509C184.648 323.564 184.909 323.64 185.156 323.743C185.403 323.852 185.643 323.976 185.869 324.127C186.096 324.278 186.302 324.449 186.494 324.635C187.263 325.403 187.702 326.467 187.702 327.551C187.702 328.629 187.263 329.692 186.494 330.461C186.302 330.646 186.096 330.825 185.869 330.969C185.643 331.12 185.403 331.25 185.156 331.353C184.909 331.456 184.648 331.532 184.387 331.587C184.12 331.641 183.853 331.669 183.584 331.669Z" fill="#333333"/>
<path d="M324.418 331.669C324.15 331.669 323.883 331.641 323.615 331.586C323.354 331.532 323.093 331.456 322.846 331.353C322.592 331.25 322.352 331.12 322.133 330.969C321.906 330.818 321.694 330.646 321.508 330.461C321.316 330.269 321.145 330.056 320.994 329.837C320.849 329.61 320.719 329.37 320.616 329.123C320.513 328.876 320.438 328.615 320.383 328.354C320.328 328.087 320.3 327.819 320.3 327.551C320.3 327.284 320.328 327.009 320.383 326.741C320.438 326.481 320.513 326.22 320.616 325.973C320.719 325.726 320.849 325.486 320.994 325.259C321.145 325.04 321.316 324.827 321.508 324.635C321.694 324.449 321.906 324.271 322.133 324.127C322.352 323.976 322.592 323.846 322.846 323.743C323.093 323.64 323.354 323.564 323.615 323.509C324.953 323.242 326.374 323.681 327.328 324.635C327.52 324.827 327.691 325.04 327.842 325.259C327.993 325.486 328.117 325.726 328.22 325.973C328.323 326.22 328.405 326.481 328.453 326.741C328.508 327.009 328.535 327.284 328.535 327.551C328.535 327.819 328.508 328.087 328.453 328.354C328.405 328.615 328.323 328.876 328.22 329.123C328.117 329.37 327.993 329.61 327.842 329.837C327.691 330.056 327.52 330.269 327.328 330.461C326.566 331.223 325.502 331.669 324.418 331.669Z" fill="#333333"/>
<path d="M183.584 180.501C183.317 180.501 183.042 180.473 182.774 180.425C182.514 180.371 182.253 180.288 182.006 180.185C181.759 180.082 181.519 179.959 181.299 179.808C181.073 179.657 180.86 179.485 180.668 179.3C180.482 179.108 180.311 178.895 180.16 178.669C180.009 178.449 179.885 178.209 179.782 177.962C179.679 177.715 179.597 177.454 179.542 177.193C179.494 176.926 179.467 176.651 179.467 176.383C179.467 176.116 179.494 175.848 179.542 175.58C179.597 175.32 179.679 175.059 179.782 174.812C179.885 174.565 180.009 174.325 180.16 174.098C180.311 173.872 180.482 173.666 180.668 173.474C180.86 173.288 181.073 173.11 181.299 172.966C181.519 172.815 181.759 172.684 182.006 172.582C182.253 172.479 182.514 172.403 182.774 172.348C183.31 172.245 183.859 172.245 184.387 172.348C184.648 172.403 184.909 172.479 185.156 172.582C185.403 172.684 185.643 172.815 185.869 172.966C186.096 173.11 186.302 173.288 186.494 173.474C187.263 174.242 187.702 175.306 187.702 176.383C187.702 177.468 187.263 178.531 186.494 179.3C186.302 179.485 186.096 179.657 185.869 179.808C185.643 179.959 185.403 180.082 185.156 180.185C184.909 180.288 184.648 180.371 184.387 180.425C184.12 180.473 183.853 180.501 183.584 180.501Z" fill="#333333"/>
<path d="M324.418 180.501C324.15 180.501 323.876 180.48 323.615 180.425C323.354 180.37 323.093 180.295 322.846 180.192C322.592 180.089 322.352 179.959 322.133 179.808C321.906 179.664 321.694 179.485 321.508 179.3C320.74 178.531 320.3 177.468 320.3 176.39C320.3 176.116 320.328 175.848 320.383 175.58C320.438 175.32 320.513 175.059 320.616 174.812C320.719 174.565 320.849 174.325 320.994 174.098C321.145 173.878 321.316 173.666 321.508 173.474C321.694 173.288 321.906 173.11 322.133 172.966C322.352 172.815 322.592 172.684 322.846 172.581C323.093 172.478 323.354 172.403 323.615 172.348C324.953 172.08 326.374 172.52 327.328 173.474C327.52 173.666 327.691 173.878 327.842 174.098C327.993 174.325 328.117 174.565 328.22 174.812C328.323 175.059 328.405 175.32 328.453 175.58C328.508 175.848 328.535 176.116 328.535 176.39C328.535 177.474 328.096 178.531 327.328 179.3C326.566 180.062 325.502 180.501 324.418 180.501Z" fill="#333333"/>
<path d="M183.584 271.32C183.317 271.32 183.042 271.292 182.774 271.237C182.514 271.183 182.253 271.107 182.006 271.004C181.759 270.901 181.519 270.771 181.299 270.627C181.073 270.476 180.86 270.304 180.668 270.112C180.482 269.92 180.311 269.714 180.16 269.487C180.009 269.261 179.885 269.021 179.782 268.774C179.679 268.527 179.597 268.266 179.542 268.005C179.494 267.738 179.467 267.47 179.467 267.202C179.467 266.935 179.494 266.66 179.542 266.399C179.597 266.132 179.679 265.871 179.782 265.624C179.885 265.377 180.009 265.137 180.16 264.917C180.311 264.691 180.482 264.478 180.668 264.293C180.86 264.1 181.073 263.929 181.299 263.778C181.519 263.627 181.759 263.503 182.006 263.4C182.253 263.297 182.514 263.215 182.774 263.16C183.31 263.057 183.859 263.057 184.387 263.16C184.648 263.215 184.909 263.297 185.156 263.4C185.403 263.503 185.643 263.627 185.869 263.778C186.096 263.929 186.302 264.1 186.494 264.293C187.263 265.054 187.702 266.118 187.702 267.202C187.702 268.287 187.263 269.343 186.494 270.112C186.302 270.304 186.096 270.476 185.869 270.627C185.643 270.771 185.403 270.901 185.156 271.004C184.909 271.107 184.648 271.183 184.387 271.237C184.12 271.292 183.853 271.32 183.584 271.32Z" fill="#333333"/>
<path d="M324.418 271.32C324.15 271.32 323.883 271.292 323.615 271.237C323.354 271.182 323.093 271.107 322.846 271.004C322.592 270.901 322.352 270.771 322.133 270.627C321.906 270.476 321.694 270.304 321.508 270.112C321.316 269.92 321.145 269.714 320.994 269.487C320.849 269.261 320.719 269.021 320.616 268.774C320.513 268.527 320.438 268.266 320.383 268.005C320.328 267.737 320.3 267.47 320.3 267.202C320.3 266.118 320.74 265.054 321.508 264.286C321.694 264.1 321.906 263.929 322.133 263.778C322.352 263.627 322.592 263.503 322.846 263.4C323.093 263.297 323.354 263.215 323.615 263.16C324.953 262.892 326.374 263.332 327.328 264.286C328.096 265.054 328.535 266.118 328.535 267.202C328.535 267.47 328.508 267.737 328.453 268.005C328.405 268.266 328.323 268.527 328.22 268.774C328.117 269.021 327.993 269.261 327.842 269.487C327.691 269.714 327.52 269.92 327.328 270.112C326.566 270.88 325.502 271.32 324.418 271.32Z" fill="#333333"/>
</g>
<defs>
<filter id="filter0_d_69_156" x="0" y="0" width="508" height="508" filterUnits="userSpaceOnUse" color-interpolation-filters="sRGB">
<feFlood flood-opacity="0" result="BackgroundImageFix"/>
<feColorMatrix in="SourceAlpha" type="matrix" values="0 0 0 0 0 0 0 0 0 0 0 0 0 0 0 0 0 0 127 0" result="hardAlpha"/>
<feOffset/>
<feGaussianBlur stdDeviation="2"/>
<feComposite in2="hardAlpha" operator="out"/>
<feColorMatrix type="matrix" values="0 0 0 0 0 0 0 0 0 0 0 0 0 0 0 0 0 0 0.25 0"/>
<feBlend mode="normal" in2="BackgroundImageFix" result="effect1_dropShadow_69_156"/>
<feBlend mode="normal" in="SourceGraphic" in2="effect1_dropShadow_69_156" result="shape"/>
</filter>
</defs>
</svg>
