<svg width="508" height="508" viewBox="0 0 508 508" fill="none" xmlns="http://www.w3.org/2000/svg">
<g filter="url(#filter0_d_69_127)">
<rect x="4" y="4" width="500" height="500" rx="11" fill="white"/>
<path d="M102.871 454V429.273H108.848V439.197H118.592V429.273H124.556V454H118.592V444.063H108.848V454H102.871ZM151.644 441.636C151.644 444.357 151.121 446.663 150.074 448.555C149.028 450.446 147.611 451.883 145.824 452.865C144.045 453.847 142.049 454.338 139.836 454.338C137.614 454.338 135.614 453.843 133.835 452.853C132.056 451.863 130.643 450.426 129.597 448.543C128.559 446.651 128.039 444.349 128.039 441.636C128.039 438.916 128.559 436.61 129.597 434.718C130.643 432.826 132.056 431.39 133.835 430.408C135.614 429.426 137.614 428.935 139.836 428.935C142.049 428.935 144.045 429.426 145.824 430.408C147.611 431.39 149.028 432.826 150.074 434.718C151.121 436.61 151.644 438.916 151.644 441.636ZM145.534 441.636C145.534 440.027 145.305 438.666 144.846 437.555C144.395 436.445 143.743 435.603 142.89 435.032C142.045 434.46 141.027 434.175 139.836 434.175C138.652 434.175 137.634 434.46 136.781 435.032C135.928 435.603 135.272 436.445 134.813 437.555C134.362 438.666 134.137 440.027 134.137 441.636C134.137 443.246 134.362 444.607 134.813 445.717C135.272 446.828 135.928 447.669 136.781 448.241C137.634 448.812 138.652 449.098 139.836 449.098C141.027 449.098 142.045 448.812 142.89 448.241C143.743 447.669 144.395 446.828 144.846 445.717C145.305 444.607 145.534 443.246 145.534 441.636ZM155.133 429.273H162.534L168.813 444.582H169.103L175.381 429.273H182.782V454H176.963V438.811H176.757L170.817 453.843H167.098L161.158 438.727H160.953V454H155.133V429.273ZM186.51 454V429.273H203.752V434.126H192.487V439.197H202.87V444.063H192.487V449.146H203.752V454H186.51ZM214.799 454V429.273H231.678V434.126H220.776V439.197H230.604V444.063H220.776V454H214.799ZM249.647 429.273H255.612V445.222C255.612 447.066 255.173 448.671 254.296 450.04C253.418 451.4 252.195 452.455 250.625 453.203C249.056 453.944 247.233 454.314 245.156 454.314C243.055 454.314 241.22 453.944 239.65 453.203C238.081 452.455 236.861 451.4 235.992 450.04C235.123 448.671 234.688 447.066 234.688 445.222V429.273H240.664V444.703C240.664 445.556 240.85 446.317 241.22 446.985C241.598 447.653 242.125 448.176 242.801 448.555C243.478 448.933 244.262 449.122 245.156 449.122C246.049 449.122 246.83 448.933 247.498 448.555C248.174 448.176 248.702 447.653 249.08 446.985C249.458 446.317 249.647 445.556 249.647 444.703V429.273ZM259.358 454V429.273H269.572C271.424 429.273 273.021 429.607 274.366 430.275C275.718 430.935 276.76 431.885 277.493 433.124C278.225 434.356 278.591 435.817 278.591 437.507C278.591 439.222 278.217 440.679 277.469 441.878C276.72 443.069 275.657 443.979 274.281 444.607C272.905 445.226 271.275 445.536 269.391 445.536H262.932V440.827H268.28C269.182 440.827 269.934 440.711 270.538 440.477C271.15 440.236 271.613 439.874 271.927 439.391C272.241 438.9 272.398 438.272 272.398 437.507C272.398 436.742 272.241 436.111 271.927 435.612C271.613 435.104 271.15 434.726 270.538 434.477C269.926 434.219 269.174 434.09 268.28 434.09H265.334V454H259.358ZM273.279 442.699L279.437 454H272.917L266.88 442.699H273.279ZM302.914 429.273V454H297.843L288.003 439.729H287.846V454H281.869V429.273H287.013L296.744 443.52H296.95V429.273H302.914ZM312.649 429.273V454H306.672V429.273H312.649ZM315.592 434.126V429.273H336.492V434.126H328.994V454H323.102V434.126H315.592ZM354.37 429.273H360.335V445.222C360.335 447.066 359.896 448.671 359.018 450.04C358.141 451.4 356.918 452.455 355.348 453.203C353.778 453.944 351.955 454.314 349.879 454.314C347.778 454.314 345.942 453.944 344.373 453.203C342.803 452.455 341.584 451.4 340.714 450.04C339.845 448.671 339.411 447.066 339.411 445.222V429.273H345.387V444.703C345.387 445.556 345.572 446.317 345.942 446.985C346.321 447.653 346.848 448.176 347.524 448.555C348.2 448.933 348.985 449.122 349.879 449.122C350.772 449.122 351.553 448.933 352.221 448.555C352.897 448.176 353.424 447.653 353.803 446.985C354.181 446.317 354.37 445.556 354.37 444.703V429.273ZM364.08 454V429.273H374.295C376.146 429.273 377.744 429.607 379.088 430.275C380.441 430.935 381.483 431.885 382.215 433.124C382.948 434.356 383.314 435.817 383.314 437.507C383.314 439.222 382.94 440.679 382.191 441.878C381.443 443.069 380.38 443.979 379.004 444.607C377.627 445.226 375.997 445.536 374.114 445.536H367.654V440.827H373.003C373.905 440.827 374.657 440.711 375.261 440.477C375.873 440.236 376.335 439.874 376.649 439.391C376.963 438.9 377.12 438.272 377.12 437.507C377.12 436.742 376.963 436.111 376.649 435.612C376.335 435.104 375.873 434.726 375.261 434.477C374.649 434.219 373.896 434.09 373.003 434.09H370.057V454H364.08ZM378.002 442.699L384.159 454H377.639L371.602 442.699H378.002ZM386.592 454V429.273H403.834V434.126H392.569V439.197H402.952V444.063H392.569V449.146H403.834V454H386.592Z" fill="black"/>
<path d="M336.555 301H175.444C171.981 301 168.61 300.604 165.375 299.855V313.5C165.375 318.678 161.178 322.875 156 322.875C150.822 322.875 146.625 318.678 146.625 313.5V290.391C137.063 282.239 131 270.105 131 256.555V226C131 212.193 142.193 201 156 201C169.807 201 181 212.193 181 226V241C181 246.522 185.477 251 191 251H321C326.522 251 331 246.522 331 241V226C331 212.193 342.192 201 356 201C369.807 201 381 212.193 381 226V256.555C381 270.105 374.936 282.239 365.375 290.391V313.5C365.375 318.678 361.177 322.875 356 322.875C350.822 322.875 346.625 318.678 346.625 313.5V299.855C343.39 300.604 340.019 301 336.555 301Z" fill="#C03A2B"/>
<path opacity="0.5" d="M156.085 188.5C156.191 184.4 156.428 181.422 156.961 178.745C160.906 158.911 176.411 143.406 196.245 139.461C201.075 138.5 206.884 138.5 218.5 138.5H293.5C305.116 138.5 310.925 138.5 315.755 139.461C335.589 143.406 351.094 158.911 355.039 178.745C355.571 181.422 355.809 184.4 355.915 188.5L356 188.5V201C342.192 201 331 212.193 331 226V241C331 246.522 326.522 251 321 251H191C185.477 251 181 246.522 181 241V226C181 212.193 169.807 201 156 201V188.5L156.085 188.5Z" fill="#C03A2B"/>
</g>
<defs>
<filter id="filter0_d_69_127" x="0" y="0" width="508" height="508" filterUnits="userSpaceOnUse" color-interpolation-filters="sRGB">
<feFlood flood-opacity="0" result="BackgroundImageFix"/>
<feColorMatrix in="SourceAlpha" type="matrix" values="0 0 0 0 0 0 0 0 0 0 0 0 0 0 0 0 0 0 127 0" result="hardAlpha"/>
<feOffset/>
<feGaussianBlur stdDeviation="2"/>
<feComposite in2="hardAlpha" operator="out"/>
<feColorMatrix type="matrix" values="0 0 0 0 0 0 0 0 0 0 0 0 0 0 0 0 0 0 0.25 0"/>
<feBlend mode="normal" in2="BackgroundImageFix" result="effect1_dropShadow_69_127"/>
<feBlend mode="normal" in="SourceGraphic" in2="effect1_dropShadow_69_127" result="shape"/>
</filter>
</defs>
</svg>
