<svg xmlns="http://www.w3.org/2000/svg" viewBox="0 0 48 48"><defs><style>.cls-1{fill:#5b9ad8;}.cls-2{fill:#6fabe6;}.cls-3{fill:#9fdbf3;}.cls-4{fill:#b2e5fb;}.cls-5{fill:#9dcc6b;}.cls-6{fill:#b5e08c;}</style></defs><title>28. Earth on T-shirt</title><g id="_28._Earth_on_T-shirt" data-name="28. Earth on T-shirt"><path class="cls-1" d="M47,20l-9,4.5V44.13a35.6,35.6,0,0,1-28,0V24.5L1,20C6.8,3.76,3.81,7.1,16,1H32C44.21,7.11,41.21,3.79,47,20Z"/><path class="cls-2" d="M47,20l-9,4.5V43.25A35.36,35.36,0,0,1,26.86,45,14.08,14.08,0,0,1,13,30.83V22.5a11.36,11.36,0,0,1-5.62-14C9.14,3.62,8.13,4.94,16,1H32C44.05,7,41.15,3.61,47,20Z"/><path class="cls-3" d="M34,26a10,10,0,0,1-2,6c-5.76,7.67-18,3.54-18-6a10,10,0,0,1,4-8C22.75,13.29,34,16.79,34,26Z"/><path class="cls-4" d="M34,26a10,10,0,0,1-2,6,10,10,0,0,1-16-8C16,11.62,34,14.37,34,26Z"/><path class="cls-5" d="M32.85,30.64a2.27,2.27,0,0,1-1.89-.7c-.49-.84-.61-3.45-1.94-3.11-1.81,1-5.31-.24-2.27-4.68a13.14,13.14,0,0,1,4-3.51A10,10,0,0,1,32.85,30.64Z"/><path class="cls-6" d="M33.64,28.63A2.09,2.09,0,0,1,32,27.94c-.49-.84-.61-3.45-1.94-3.11-2.34,1.34-5.65-1.35-1.53-4.54.91-.7,1.49-1.45,2.27-1.65A10,10,0,0,1,33.64,28.63Z"/><path class="cls-5" d="M24.56,19.08c-.75,1.28-2.37,1.72-3.78,2.31-2.61,1.1-1.16,2.22-2.24,3.84-.54.77-3.24,1.64-4.1-1.84C14.11,22.48,17.16,16,24,16A2.55,2.55,0,0,1,24.56,19.08Z"/><path class="cls-6" d="M24.62,17c-.3,1.19-3,2.07-3.84,2.43-2.83,1.19-1,2.66-2.36,4A1.37,1.37,0,0,1,16.2,22,9.82,9.82,0,0,1,18,18a9.74,9.74,0,0,1,6-2A4.34,4.34,0,0,1,24.62,17Z"/><path class="cls-5" d="M26.71,35.62A9.92,9.92,0,0,1,19.57,35a11.06,11.06,0,0,0,.05-3c-.59-2.89,3.31-3.81,4.38-.5C24.46,32.86,27.92,31.53,26.71,35.62Z"/><path class="cls-6" d="M26.9,33.81c-4,.85-6-1-6.22-3.46-.07-.73-.26-.73.11-.89,1.08-.42,2.62.17,3.21,2C24.39,32.62,26.63,31.84,26.9,33.81Z"/><path class="cls-1" d="M39,16v8c-1.26.63-1,.24-1,1.5a1,1,0,0,1-1-1V16A1,1,0,0,1,39,16Z"/><path class="cls-1" d="M11,16v8.5a1,1,0,0,1-1,1c0-1.26.26-.87-1-1.5V16A1,1,0,0,1,11,16Z"/><path class="cls-1" d="M32,1c-1.33,9.29-14.67,9.3-16,0Z"/><path class="cls-2" d="M31,1A8.06,8.06,0,0,1,17,1Z"/></g></svg>