<svg width="508" height="508" viewBox="0 0 508 508" fill="none" xmlns="http://www.w3.org/2000/svg">
<g filter="url(#filter0_d_66_35)">
<rect x="4" width="500" height="500" rx="11" fill="white"/>
<g clip-path="url(#clip0_66_35)">
<path d="M254 322.556C325.122 322.556 382.778 264.9 382.778 193.778C382.778 122.656 325.122 65 254 65C182.878 65 125.222 122.656 125.222 193.778C125.222 264.9 182.878 322.556 254 322.556Z" fill="#F2AD51"/>
<path d="M345.158 284.936C294.997 335.096 213.003 335.096 162.843 284.936C112.682 234.775 112.682 152.781 162.843 102.621" fill="#FFC166"/>
<path d="M403.518 365C381.331 317.733 317.666 331.72 254 331.72C190.334 331.72 126.669 317.733 104.482 365H403.518Z" fill="#6CAD27"/>
<path d="M373.132 365C354.322 317.733 308.019 283.971 254 283.971C199.981 283.971 153.678 317.733 134.868 365H373.132Z" fill="#A0E252"/>
<path d="M373.132 365C354.322 317.733 308.019 298.44 254 298.44C199.981 298.44 153.678 317.733 134.868 365H373.132Z" fill="#7DC431"/>
<path d="M293.068 365H214.932L233.743 318.215H274.257L293.068 365Z" fill="#6FAF25"/>
<path d="M195.158 254.068L180.688 239.116L155.125 264.678L180.688 290.241L195.158 275.772V254.068Z" fill="#D65483"/>
<path d="M161.683 290.38L187.254 264.795L161.669 239.224L136.098 264.809L161.683 290.38Z" fill="#D65483"/>
<path d="M142.585 239.116L127.633 254.068V275.289L142.585 290.241L168.148 264.678L142.585 239.116Z" fill="#D65483"/>
<path d="M165.736 290.241H157.537V351.495H165.736V290.241Z" fill="#028952"/>
<path d="M157.537 290.241H165.254V351.495" fill="#036D3F"/>
<path d="M188.887 259.373L179.723 250.209L170.559 259.373L161.395 250.209L152.231 259.373L143.068 250.209L133.904 259.373L127.633 253.103V274.325C127.633 292.17 142.103 306.64 159.949 306.64H162.842C180.688 306.64 195.158 292.17 195.158 274.325V253.103L188.887 259.373Z" fill="#EA7D9F"/>
<path d="M188.887 259.373L179.723 250.209L170.559 259.373L161.395 250.209L152.231 259.373L143.068 250.209L133.904 259.373L127.633 253.103V274.325C127.633 292.17 142.103 306.64 159.949 306.64H162.842C180.688 306.64 195.158 292.17 195.158 274.325V253.103L188.887 259.373Z" fill="#EA7D9F"/>
<path d="M179.727 250.052L172.911 256.878L175.3 259.263L182.116 252.438L179.727 250.052Z" fill="#F4AEC7"/>
<path d="M161.216 250.134L154.4 256.96L156.789 259.346L163.605 252.52L161.216 250.134Z" fill="#F4AEC7"/>
<path d="M193.711 259.373L195.158 257.926V253.103L191.299 256.961L193.711 259.373Z" fill="#F4AEC7"/>
<path d="M132.457 274.325V257.926L127.633 253.103V274.325C127.633 292.17 142.103 306.64 159.949 306.64H162.842C163.325 306.64 163.325 306.64 163.807 306.64C146.444 306.157 132.457 291.688 132.457 274.325Z" fill="#F4AEC7"/>
<path d="M143.059 249.894L136.238 256.715L138.625 259.103L145.446 252.282L143.059 249.894Z" fill="#F4AEC7"/>
<path d="M380.367 254.068L365.415 239.116L339.852 264.678L365.415 290.241L380.367 275.772V254.068Z" fill="#D65483"/>
<path d="M346.86 290.316L372.435 264.735L346.853 239.16L321.279 264.742L346.86 290.316Z" fill="#D65483"/>
<path d="M327.794 239.116L312.842 254.068V275.289L327.794 290.241L353.357 264.678L327.794 239.116Z" fill="#D65483"/>
<path d="M350.945 290.241H342.746V351.495H350.945V290.241Z" fill="#028952"/>
<path d="M342.746 290.241H350.463V351.495" fill="#036D3F"/>
<path d="M374.096 259.373L364.932 250.209L355.768 259.373L346.604 250.209L337.44 259.373L328.276 250.209L319.112 259.373L312.842 253.103V274.325C312.842 292.17 327.312 306.64 345.158 306.64H348.051C365.897 306.64 380.367 292.17 380.367 274.325V253.103L374.096 259.373Z" fill="#EA7D9F"/>
<path d="M374.096 259.373L364.932 250.209L355.768 259.373L346.604 250.209L337.44 259.373L328.276 250.209L319.112 259.373L312.842 253.103V274.325C312.842 292.17 327.312 306.64 345.158 306.64H348.051C365.897 306.64 380.367 292.17 380.367 274.325V253.103L374.096 259.373Z" fill="#EA7D9F"/>
<path d="M364.839 250.124L358.018 256.945L360.405 259.332L367.226 252.511L364.839 250.124Z" fill="#F4AEC7"/>
<path d="M346.666 249.841L339.85 256.667L342.239 259.053L349.055 252.227L346.666 249.841Z" fill="#F4AEC7"/>
<path d="M378.92 259.373L380.367 257.926V253.103L376.508 256.961L378.92 259.373Z" fill="#F4AEC7"/>
<path d="M317.666 274.325V257.926L312.842 253.103V274.325C312.842 292.17 327.312 306.64 345.158 306.64H348.051C348.534 306.64 348.534 306.64 349.016 306.64C331.653 306.157 317.666 291.688 317.666 274.325Z" fill="#F4AEC7"/>
<path d="M328.116 249.92L321.296 256.745L323.684 259.131L330.504 252.307L328.116 249.92Z" fill="#F4AEC7"/>
<path d="M257.376 343.778C257.376 346.19 255.447 348.119 253.035 348.119C250.624 348.119 248.695 346.19 248.695 343.778V154.711C248.695 152.299 250.624 150.37 253.035 150.37C255.447 150.37 257.376 152.299 257.376 154.711V343.778Z" fill="#036D3F"/>
<path d="M270.399 90.0804C270.399 112.267 262.682 136.383 253.035 136.383C243.389 136.383 235.672 112.267 235.672 90.0804C235.672 67.8939 243.389 65 253.035 65C262.682 65.4823 270.399 67.8939 270.399 90.0804Z" fill="#F283B1"/>
<path d="M253.035 65.4823C262.682 65.4823 270.399 68.3762 270.399 90.5627C270.399 112.749 262.682 136.865 253.035 136.865" fill="#EF6597"/>
<path d="M235.672 227.058C235.672 204.871 243.389 180.756 253.035 180.756C262.682 180.756 270.399 204.871 270.399 227.058C270.399 249.244 262.682 252.138 253.035 252.138C243.389 252.138 235.672 249.244 235.672 227.058Z" fill="#F283B1"/>
<path d="M253.035 252.138C243.389 252.138 235.672 249.244 235.672 227.058C235.672 204.871 243.389 180.756 253.035 180.756" fill="#EF6597"/>
<path d="M321.524 175.932C299.338 175.932 275.222 168.215 275.222 158.569C275.222 148.923 299.338 141.206 321.524 141.206C343.711 141.206 346.605 148.923 346.605 158.569C346.605 168.215 343.711 175.932 321.524 175.932Z" fill="#F283B1"/>
<path d="M346.605 158.569C346.605 168.215 343.711 175.932 321.524 175.932C299.338 175.932 275.222 168.215 275.222 158.569" fill="#EF6597"/>
<path d="M184.547 141.688C206.733 141.688 230.849 149.405 230.849 159.051C230.849 168.698 206.733 176.415 184.547 176.415C162.36 176.415 159.466 168.698 159.466 159.051C159.466 149.405 162.36 141.688 184.547 141.688Z" fill="#F283B1"/>
<path d="M159.466 158.569C159.466 148.923 162.36 141.206 184.547 141.206C206.733 141.206 230.849 148.923 230.849 158.569" fill="#EF6597"/>
<path d="M313.807 122.395C297.891 137.83 275.704 149.887 268.952 143.135C262.199 136.383 273.775 113.714 289.691 98.2797C305.125 82.8456 312.842 86.2218 319.595 92.9742C325.865 99.2443 329.241 106.479 313.807 122.395Z" fill="#F283B1"/>
<path d="M319.113 92.4919C325.865 99.2444 329.241 106.479 313.807 122.395C297.891 137.83 275.704 149.887 268.952 143.135" fill="#EF6597"/>
<path d="M192.264 195.225C208.18 179.791 230.367 167.733 237.119 174.486C243.871 181.238 232.296 203.907 216.379 219.341C200.463 234.775 193.228 231.399 186.476 224.646C180.206 217.894 176.83 210.659 192.264 195.225Z" fill="#F283B1"/>
<path d="M186.958 224.646C180.206 217.894 176.83 210.659 192.264 194.743C208.18 179.309 230.367 167.251 237.119 174.003" fill="#EF6597"/>
<path d="M289.209 219.341C273.775 203.424 261.717 181.238 268.469 174.485C275.222 167.733 297.891 179.309 313.325 195.225C328.759 211.141 325.383 218.376 318.63 225.129C312.36 231.399 305.125 235.257 289.209 219.341Z" fill="#F283B1"/>
<path d="M319.113 224.646C312.36 231.399 305.125 234.775 289.209 219.341C273.775 203.424 261.717 181.238 268.469 174.486" fill="#EF6597"/>
<path d="M216.862 98.2798C232.296 113.714 244.354 136.383 237.601 143.135C230.849 149.887 208.18 138.312 192.746 122.396C176.83 106.479 180.206 99.2444 186.958 92.492C193.711 85.7396 200.945 82.3634 216.862 98.2798Z" fill="#F283B1"/>
<path d="M186.958 92.4919C193.711 85.7395 200.945 82.3633 216.862 97.7974C232.296 113.231 244.354 135.9 237.601 142.653" fill="#EF6597"/>
<path d="M253.035 187.508C269.018 187.508 281.974 174.552 281.974 158.569C281.974 142.587 269.018 129.63 253.035 129.63C237.053 129.63 224.096 142.587 224.096 158.569C224.096 174.552 237.053 187.508 253.035 187.508Z" fill="#F7C90B"/>
<path d="M273.775 138.312C284.868 149.887 284.868 168.215 273.775 179.309C262.199 190.884 243.871 190.884 232.778 179.309" fill="#F9A908"/>
<path d="M255.929 307.122C255.929 307.122 248.212 275.289 227.955 268.055C207.698 260.82 210.109 244.421 210.109 244.421C210.109 244.421 186.958 292.653 221.685 326.897C249.177 353.907 253.518 341.366 253.518 341.366L255.929 307.122Z" fill="#036D3F"/>
<path d="M250.141 307.122C250.141 307.122 257.859 275.289 278.116 268.055C298.373 260.82 295.961 244.421 295.961 244.421C295.961 244.421 319.113 292.653 284.386 326.897C256.894 353.907 252.553 341.366 252.553 341.366L250.141 307.122Z" fill="#036D3F"/>
</g>
<path d="M90.4052 428.686C90.3247 427.801 89.9665 427.112 89.3306 426.621C88.7028 426.122 87.8053 425.873 86.6381 425.873C85.8654 425.873 85.2215 425.973 84.7063 426.175C84.1912 426.376 83.8048 426.654 83.5472 427.008C83.2897 427.354 83.1568 427.752 83.1488 428.203C83.1327 428.573 83.2051 428.899 83.3661 429.181C83.5352 429.463 83.7766 429.712 84.0906 429.93C84.4125 430.139 84.7989 430.324 85.2496 430.485C85.7004 430.646 86.2075 430.787 86.771 430.908L88.896 431.391C90.1194 431.656 91.198 432.01 92.1317 432.453C93.0735 432.896 93.8623 433.423 94.4982 434.035C95.1422 434.647 95.6291 435.351 95.9592 436.148C96.2892 436.945 96.4582 437.838 96.4663 438.828C96.4582 440.39 96.0638 441.73 95.283 442.849C94.5022 443.968 93.3794 444.825 91.9144 445.42C90.4575 446.016 88.6987 446.314 86.6381 446.314C84.5695 446.314 82.7665 446.004 81.229 445.384C79.6916 444.764 78.4963 443.823 77.6431 442.559C76.7899 441.295 76.3512 439.697 76.3271 437.766H82.0501C82.0984 438.562 82.3117 439.227 82.69 439.758C83.0683 440.289 83.5875 440.692 84.2475 440.965C84.9156 441.239 85.6883 441.376 86.5657 441.376C87.3706 441.376 88.0548 441.267 88.6183 441.05C89.1897 440.832 89.6284 440.531 89.9343 440.144C90.2402 439.758 90.3971 439.315 90.4052 438.816C90.3971 438.349 90.2522 437.951 89.9705 437.621C89.6888 437.283 89.2541 436.993 88.6665 436.751C88.087 436.502 87.3465 436.272 86.445 436.063L83.8612 435.46C81.7201 434.969 80.0337 434.176 78.8022 433.081C77.5707 431.978 76.9589 430.489 76.967 428.614C76.9589 427.084 77.3694 425.744 78.1985 424.593C79.0276 423.442 80.1746 422.545 81.6396 421.901C83.1045 421.257 84.7747 420.935 86.6502 420.935C88.5659 420.935 90.2281 421.261 91.6367 421.913C93.0534 422.557 94.1521 423.462 94.9329 424.629C95.7137 425.796 96.1121 427.149 96.1282 428.686H90.4052ZM99.4847 446V421.273H109.699C111.551 421.273 113.148 421.635 114.493 422.359C115.845 423.076 116.887 424.078 117.62 425.366C118.352 426.646 118.718 428.135 118.718 429.833C118.718 431.54 118.344 433.033 117.596 434.312C116.855 435.584 115.797 436.57 114.42 437.271C113.044 437.971 111.41 438.321 109.518 438.321H103.216V433.612H108.407C109.309 433.612 110.061 433.455 110.665 433.141C111.277 432.827 111.74 432.389 112.054 431.825C112.368 431.254 112.525 430.59 112.525 429.833C112.525 429.068 112.368 428.408 112.054 427.853C111.74 427.29 111.277 426.855 110.665 426.549C110.053 426.243 109.301 426.09 108.407 426.09H105.461V446H99.4847ZM121.664 446V421.273H131.879C133.73 421.273 135.328 421.607 136.672 422.275C138.025 422.935 139.067 423.885 139.799 425.124C140.532 426.356 140.898 427.817 140.898 429.507C140.898 431.222 140.524 432.679 139.775 433.878C139.027 435.069 137.964 435.979 136.588 436.607C135.211 437.226 133.581 437.536 131.698 437.536H125.238V432.827H130.587C131.489 432.827 132.241 432.711 132.845 432.477C133.457 432.236 133.919 431.874 134.233 431.391C134.547 430.9 134.704 430.272 134.704 429.507C134.704 428.742 134.547 428.111 134.233 427.612C133.919 427.104 133.457 426.726 132.845 426.477C132.233 426.219 131.48 426.09 130.587 426.09H127.641V446H121.664ZM135.586 434.699L141.743 446H135.223L129.186 434.699H135.586ZM150.153 421.273V446H144.176V421.273H150.153ZM174.949 421.273V446H169.878L160.038 431.729H159.881V446H153.905V421.273H159.048L168.78 435.52H168.985V421.273H174.949ZM194.935 429.35C194.798 428.843 194.597 428.396 194.331 428.01C194.065 427.616 193.739 427.281 193.353 427.008C192.967 426.734 192.524 426.529 192.025 426.392C191.526 426.247 190.978 426.175 190.383 426.175C189.183 426.175 188.145 426.464 187.268 427.044C186.398 427.624 185.726 428.469 185.251 429.58C184.777 430.682 184.539 432.022 184.539 433.6C184.539 435.186 184.768 436.538 185.227 437.657C185.686 438.776 186.35 439.629 187.219 440.217C188.089 440.804 189.143 441.098 190.383 441.098C191.478 441.098 192.403 440.921 193.16 440.567C193.924 440.205 194.504 439.693 194.898 439.033C195.293 438.373 195.49 437.597 195.49 436.703L196.601 436.836H190.588V432.477H201.249V435.749C201.249 437.963 200.778 439.858 199.837 441.436C198.903 443.014 197.615 444.225 195.973 445.07C194.339 445.915 192.46 446.338 190.335 446.338C187.976 446.338 185.903 445.827 184.116 444.805C182.33 443.782 180.937 442.326 179.939 440.434C178.941 438.534 178.442 436.281 178.442 433.673C178.442 431.644 178.744 429.845 179.347 428.276C179.951 426.698 180.792 425.362 181.871 424.267C182.957 423.172 184.213 422.343 185.638 421.78C187.071 421.216 188.612 420.935 190.262 420.935C191.695 420.935 193.027 421.14 194.259 421.55C195.498 421.961 196.593 422.54 197.543 423.289C198.5 424.038 199.277 424.927 199.873 425.957C200.469 426.988 200.839 428.119 200.984 429.35H194.935ZM234.522 430.232H228.485C228.404 429.612 228.239 429.052 227.99 428.553C227.74 428.054 227.41 427.628 227 427.273C226.589 426.919 226.102 426.65 225.539 426.464C224.983 426.271 224.368 426.175 223.692 426.175C222.492 426.175 221.458 426.469 220.589 427.056C219.727 427.644 219.063 428.493 218.596 429.604C218.138 430.714 217.908 432.059 217.908 433.636C217.908 435.278 218.142 436.655 218.608 437.766C219.083 438.868 219.747 439.701 220.601 440.265C221.462 440.82 222.48 441.098 223.655 441.098C224.315 441.098 224.915 441.013 225.454 440.844C226.002 440.675 226.481 440.43 226.891 440.108C227.31 439.778 227.652 439.379 227.917 438.913C228.191 438.438 228.38 437.902 228.485 437.307L234.522 437.343C234.417 438.438 234.099 439.516 233.568 440.579C233.045 441.641 232.324 442.611 231.407 443.489C230.489 444.358 229.37 445.05 228.05 445.565C226.738 446.08 225.233 446.338 223.535 446.338C221.297 446.338 219.293 445.847 217.522 444.865C215.759 443.875 214.367 442.434 213.344 440.543C212.322 438.651 211.811 436.349 211.811 433.636C211.811 430.916 212.33 428.61 213.368 426.718C214.407 424.826 215.811 423.39 217.582 422.408C219.353 421.426 221.337 420.935 223.535 420.935C225.032 420.935 226.416 421.144 227.688 421.562C228.96 421.973 230.079 422.577 231.045 423.374C232.01 424.162 232.795 425.132 233.399 426.283C234.003 427.434 234.377 428.75 234.522 430.232ZM261.281 433.636C261.281 436.357 260.757 438.663 259.711 440.555C258.665 442.446 257.248 443.883 255.461 444.865C253.682 445.847 251.686 446.338 249.472 446.338C247.251 446.338 245.25 445.843 243.472 444.853C241.693 443.863 240.28 442.426 239.234 440.543C238.195 438.651 237.676 436.349 237.676 433.636C237.676 430.916 238.195 428.61 239.234 426.718C240.28 424.826 241.693 423.39 243.472 422.408C245.25 421.426 247.251 420.935 249.472 420.935C251.686 420.935 253.682 421.426 255.461 422.408C257.248 423.39 258.665 424.826 259.711 426.718C260.757 428.61 261.281 430.916 261.281 433.636ZM255.171 433.636C255.171 432.027 254.942 430.666 254.483 429.555C254.032 428.445 253.38 427.603 252.527 427.032C251.682 426.46 250.664 426.175 249.472 426.175C248.289 426.175 247.271 426.46 246.418 427.032C245.564 427.603 244.908 428.445 244.45 429.555C243.999 430.666 243.773 432.027 243.773 433.636C243.773 435.246 243.999 436.607 244.45 437.717C244.908 438.828 245.564 439.669 246.418 440.241C247.271 440.812 248.289 441.098 249.472 441.098C250.664 441.098 251.682 440.812 252.527 440.241C253.38 439.669 254.032 438.828 254.483 437.717C254.942 436.607 255.171 435.246 255.171 433.636ZM264.77 446V421.273H270.746V441.146H281.033V446H264.77ZM284.127 446V421.273H290.104V441.146H300.391V446H284.127ZM303.485 446V421.273H320.726V426.126H309.461V431.197H319.845V436.063H309.461V441.146H320.726V446H303.485ZM346.914 430.232H340.877C340.797 429.612 340.632 429.052 340.382 428.553C340.133 428.054 339.803 427.628 339.392 427.273C338.982 426.919 338.495 426.65 337.931 426.464C337.376 426.271 336.76 426.175 336.084 426.175C334.885 426.175 333.85 426.469 332.981 427.056C332.12 427.644 331.456 428.493 330.989 429.604C330.53 430.714 330.301 432.059 330.301 433.636C330.301 435.278 330.534 436.655 331.001 437.766C331.476 438.868 332.14 439.701 332.993 440.265C333.855 440.82 334.873 441.098 336.048 441.098C336.708 441.098 337.308 441.013 337.847 440.844C338.394 440.675 338.873 440.43 339.284 440.108C339.702 439.778 340.044 439.379 340.31 438.913C340.584 438.438 340.773 437.902 340.877 437.307L346.914 437.343C346.81 438.438 346.492 439.516 345.961 440.579C345.437 441.641 344.717 442.611 343.799 443.489C342.882 444.358 341.763 445.05 340.443 445.565C339.131 446.08 337.626 446.338 335.927 446.338C333.69 446.338 331.685 445.847 329.914 444.865C328.152 443.875 326.759 442.434 325.737 440.543C324.715 438.651 324.203 436.349 324.203 433.636C324.203 430.916 324.723 428.61 325.761 426.718C326.799 424.826 328.204 423.39 329.975 422.408C331.746 421.426 333.73 420.935 335.927 420.935C337.424 420.935 338.809 421.144 340.081 421.562C341.352 421.973 342.471 422.577 343.437 423.374C344.403 424.162 345.188 425.132 345.792 426.283C346.395 427.434 346.77 428.75 346.914 430.232ZM349.525 426.126V421.273H370.425V426.126H362.927V446H357.035V426.126H349.525ZM379.321 421.273V446H373.344V421.273H379.321ZM406.411 433.636C406.411 436.357 405.888 438.663 404.842 440.555C403.795 442.446 402.379 443.883 400.592 444.865C398.813 445.847 396.817 446.338 394.603 446.338C392.382 446.338 390.381 445.843 388.602 444.853C386.824 443.863 385.411 442.426 384.365 440.543C383.326 438.651 382.807 436.349 382.807 433.636C382.807 430.916 383.326 428.61 384.365 426.718C385.411 424.826 386.824 423.39 388.602 422.408C390.381 421.426 392.382 420.935 394.603 420.935C396.817 420.935 398.813 421.426 400.592 422.408C402.379 423.39 403.795 424.826 404.842 426.718C405.888 428.61 406.411 430.916 406.411 433.636ZM400.302 433.636C400.302 432.027 400.073 430.666 399.614 429.555C399.163 428.445 398.511 427.603 397.658 427.032C396.813 426.46 395.794 426.175 394.603 426.175C393.42 426.175 392.402 426.46 391.548 427.032C390.695 427.603 390.039 428.445 389.58 429.555C389.13 430.666 388.904 432.027 388.904 433.636C388.904 435.246 389.13 436.607 389.58 437.717C390.039 438.828 390.695 439.669 391.548 440.241C392.402 440.812 393.42 441.098 394.603 441.098C395.794 441.098 396.813 440.812 397.658 440.241C398.511 439.669 399.163 438.828 399.614 437.717C400.073 436.607 400.302 435.246 400.302 433.636ZM430.945 421.273V446H425.874L416.034 431.729H415.877V446H409.901V421.273H415.044L424.776 435.52H424.981V421.273H430.945Z" fill="black"/>
</g>
<defs>
<filter id="filter0_d_66_35" x="0" y="0" width="508" height="508" filterUnits="userSpaceOnUse" color-interpolation-filters="sRGB">
<feFlood flood-opacity="0" result="BackgroundImageFix"/>
<feColorMatrix in="SourceAlpha" type="matrix" values="0 0 0 0 0 0 0 0 0 0 0 0 0 0 0 0 0 0 127 0" result="hardAlpha"/>
<feOffset dy="4"/>
<feGaussianBlur stdDeviation="2"/>
<feComposite in2="hardAlpha" operator="out"/>
<feColorMatrix type="matrix" values="0 0 0 0 0 0 0 0 0 0 0 0 0 0 0 0 0 0 0.25 0"/>
<feBlend mode="normal" in2="BackgroundImageFix" result="effect1_dropShadow_66_35"/>
<feBlend mode="normal" in="SourceGraphic" in2="effect1_dropShadow_66_35" result="shape"/>
</filter>
<clipPath id="clip0_66_35">
<rect width="300" height="300" fill="white" transform="translate(104 65)"/>
</clipPath>
</defs>
</svg>
