<svg width="508" height="508" viewBox="0 0 508 508" fill="none" xmlns="http://www.w3.org/2000/svg">
<g filter="url(#filter0_d_65_2)">
<rect x="4" width="500" height="500" rx="11" fill="white"/>
<path d="M204.424 243.603V103.944C204.424 86.8566 190.567 73 173.48 73C156.387 73 142.535 86.8566 142.535 103.944V245.113C119.285 257.773 104.231 283.592 107.388 312.572C110.788 343.795 136.068 369.125 167.287 372.571C208.353 377.108 243.107 345.077 243.107 304.928C243.107 277.878 227.286 254.582 204.424 243.603Z" fill="#FCB641"/>
<path d="M188.488 261.693V207.627C188.488 199.365 181.791 192.669 173.529 192.669C165.267 192.669 158.571 199.365 158.571 207.627V262.49C142.839 268.708 131.56 283.752 130.912 301.532C130.045 325.411 149.471 346.194 173.36 346.862C198.086 347.555 218.35 327.715 218.35 303.143C218.35 283.846 205.835 267.497 188.488 261.693Z" fill="#E66032"/>
<path d="M183.507 187.373C181.836 187.373 180.206 186.536 179.263 185.01L173.833 176.234L167.67 185.209C166.11 187.483 163.013 188.062 160.735 186.496C158.466 184.94 157.893 181.829 159.448 179.56L169.939 164.292C170.892 162.906 172.422 162.083 174.167 162.128C175.848 162.173 177.399 163.061 178.286 164.492L187.74 179.76C189.191 182.103 188.468 185.175 186.124 186.626C185.307 187.134 184.404 187.373 183.507 187.373Z" fill="#E66032"/>
<path d="M183.507 157.456C181.836 157.456 180.206 156.619 179.263 155.093L173.833 146.317L167.67 155.292C166.11 157.566 163.013 158.144 160.735 156.579C158.466 155.023 157.893 151.912 159.448 149.643L169.939 134.375C170.892 132.989 172.422 132.156 174.167 132.211C175.848 132.256 177.399 133.144 178.286 134.575L187.74 149.842C189.191 152.186 188.468 155.257 186.124 156.708C185.307 157.217 184.404 157.456 183.507 157.456Z" fill="#E66032"/>
<path d="M183.507 127.539C181.836 127.539 180.206 126.701 179.263 125.176L173.833 116.4L167.67 125.375C166.11 127.649 163.013 128.222 160.735 126.661C158.466 125.106 157.893 121.994 159.448 119.726L169.939 104.458C170.892 103.072 172.422 102.339 174.167 102.294C175.848 102.339 177.399 103.226 178.286 104.657L187.74 119.925C189.191 122.269 188.468 125.34 186.124 126.791C185.307 127.3 184.404 127.539 183.507 127.539Z" fill="#E66032"/>
<path d="M314.539 267.462C362.306 267.462 401.029 228.044 401.029 179.42C401.029 130.797 362.306 91.3792 314.539 91.3792C266.771 91.3792 228.048 130.797 228.048 179.42C228.048 228.044 266.771 267.462 314.539 267.462Z" fill="#FCB641"/>
<path d="M377.963 267.462C375.211 267.462 372.977 265.233 372.977 262.475V227.572C372.977 224.815 375.211 222.586 377.963 222.586C380.716 222.586 382.949 224.815 382.949 227.572V262.475C382.949 265.233 380.716 267.462 377.963 267.462Z" fill="#FCB641"/>
<path d="M377.963 297.379C375.211 297.379 372.977 295.15 372.977 292.393V282.42C372.977 279.663 375.211 277.434 377.963 277.434C380.716 277.434 382.949 279.663 382.949 282.42V292.393C382.949 295.15 380.716 297.379 377.963 297.379Z" fill="#FCB641"/>
<path d="M328.101 302.365C325.349 302.365 323.115 300.136 323.115 297.379V262.475C323.115 259.718 325.349 257.489 328.101 257.489C330.854 257.489 333.088 259.718 333.088 262.475V297.379C333.088 300.136 330.854 302.365 328.101 302.365Z" fill="#FCB641"/>
<path d="M328.101 332.282C325.349 332.282 323.115 330.053 323.115 327.296V317.324C323.115 314.566 325.349 312.337 328.101 312.337C330.854 312.337 333.088 314.566 333.088 317.324V327.296C333.088 330.053 330.854 332.282 328.101 332.282Z" fill="#FCB641"/>
<path d="M273.253 277.434C270.501 277.434 268.267 275.205 268.267 272.448V257.489C268.267 254.732 270.501 252.503 273.253 252.503C276.006 252.503 278.239 254.732 278.239 257.489V272.448C278.239 275.205 276.006 277.434 273.253 277.434Z" fill="#FCB641"/>
<path d="M273.253 307.351C270.501 307.351 268.267 305.122 268.267 302.365V292.393C268.267 289.635 270.501 287.406 273.253 287.406C276.006 287.406 278.239 289.635 278.239 292.393V302.365C278.239 305.122 276.006 307.351 273.253 307.351Z" fill="#FCB641"/>
<path d="M77.2372 432.686C77.1567 431.801 76.7985 431.112 76.1626 430.621C75.5348 430.122 74.6373 429.873 73.4702 429.873C72.6974 429.873 72.0535 429.973 71.5384 430.175C71.0232 430.376 70.6368 430.654 70.3793 431.008C70.1217 431.354 69.9889 431.752 69.9808 432.203C69.9647 432.573 70.0372 432.899 70.1982 433.181C70.3672 433.463 70.6087 433.712 70.9226 433.93C71.2446 434.139 71.6309 434.324 72.0817 434.485C72.5324 434.646 73.0395 434.787 73.603 434.908L75.728 435.391C76.9515 435.656 78.0301 436.01 78.9638 436.453C79.9055 436.896 80.6944 437.423 81.3303 438.035C81.9742 438.647 82.4612 439.351 82.7912 440.148C83.1212 440.945 83.2902 441.838 83.2983 442.828C83.2902 444.39 82.8958 445.73 82.1151 446.849C81.3343 447.968 80.2114 448.825 78.7464 449.42C77.2895 450.016 75.5308 450.314 73.4702 450.314C71.4015 450.314 69.5985 450.004 68.0611 449.384C66.5237 448.764 65.3284 447.823 64.4751 446.559C63.6219 445.295 63.1832 443.697 63.1591 441.766H68.8821C68.9304 442.562 69.1437 443.227 69.522 443.758C69.9003 444.289 70.4195 444.692 71.0795 444.965C71.7476 445.239 72.5204 445.376 73.3977 445.376C74.2027 445.376 74.8868 445.267 75.4503 445.05C76.0218 444.832 76.4605 444.531 76.7663 444.144C77.0722 443.758 77.2292 443.315 77.2372 442.816C77.2292 442.349 77.0843 441.951 76.8026 441.621C76.5208 441.283 76.0862 440.993 75.4986 440.751C74.919 440.502 74.1785 440.272 73.277 440.063L70.6932 439.46C68.5521 438.969 66.8658 438.176 65.6342 437.081C64.4027 435.978 63.791 434.489 63.799 432.614C63.791 431.084 64.2015 429.744 65.0305 428.593C65.8596 427.442 67.0066 426.545 68.4716 425.901C69.9366 425.257 71.6068 424.935 73.4822 424.935C75.398 424.935 77.0601 425.261 78.4688 425.913C79.8854 426.557 80.9841 427.462 81.7649 428.629C82.5457 429.796 82.9441 431.149 82.9602 432.686H77.2372ZM101.276 425.273H107.241V441.222C107.241 443.066 106.802 444.671 105.925 446.04C105.047 447.4 103.824 448.455 102.254 449.203C100.685 449.944 98.8615 450.314 96.7848 450.314C94.6839 450.314 92.8487 449.944 91.2791 449.203C89.7095 448.455 88.4901 447.4 87.6207 446.04C86.7514 444.671 86.3168 443.066 86.3168 441.222V425.273H92.2933V440.703C92.2933 441.556 92.4785 442.317 92.8487 442.985C93.227 443.653 93.7543 444.176 94.4304 444.555C95.1065 444.933 95.8913 445.122 96.7848 445.122C97.6783 445.122 98.459 444.933 99.1271 444.555C99.8033 444.176 100.33 443.653 100.709 442.985C101.087 442.317 101.276 441.556 101.276 440.703V425.273ZM110.987 425.273H118.388L124.666 440.582H124.956L131.235 425.273H138.636V450H132.816V434.811H132.611L126.671 449.843H122.952L117.012 434.727H116.806V450H110.987V425.273ZM142.364 425.273H149.765L156.043 440.582H156.333L162.612 425.273H170.013V450H164.193V434.811H163.988L158.048 449.843H154.329L148.388 434.727H148.183V450H142.364V425.273ZM173.741 450V425.273H190.982V430.126H179.717V435.197H190.101V440.063H179.717V445.146H190.982V450H173.741ZM194.725 450V425.273H204.939C206.791 425.273 208.389 425.607 209.733 426.275C211.085 426.935 212.127 427.885 212.86 429.124C213.592 430.356 213.959 431.817 213.959 433.507C213.959 435.222 213.584 436.679 212.836 437.878C212.087 439.069 211.025 439.979 209.648 440.607C208.272 441.226 206.642 441.536 204.758 441.536H198.299V436.827H203.648C204.549 436.827 205.302 436.711 205.905 436.477C206.517 436.236 206.98 435.874 207.294 435.391C207.608 434.9 207.765 434.272 207.765 433.507C207.765 432.742 207.608 432.111 207.294 431.612C206.98 431.104 206.517 430.726 205.905 430.477C205.294 430.219 204.541 430.09 203.648 430.09H200.702V450H194.725ZM208.646 438.699L214.804 450H208.284L202.247 438.699H208.646ZM246.987 434.232H240.95C240.869 433.612 240.704 433.052 240.455 432.553C240.205 432.054 239.875 431.628 239.465 431.273C239.054 430.919 238.567 430.65 238.004 430.464C237.448 430.271 236.833 430.175 236.156 430.175C234.957 430.175 233.923 430.469 233.053 431.056C232.192 431.644 231.528 432.493 231.061 433.604C230.602 434.714 230.373 436.059 230.373 437.636C230.373 439.278 230.606 440.655 231.073 441.766C231.548 442.868 232.212 443.701 233.066 444.265C233.927 444.82 234.945 445.098 236.12 445.098C236.78 445.098 237.38 445.013 237.919 444.844C238.467 444.675 238.945 444.43 239.356 444.108C239.775 443.778 240.117 443.379 240.382 442.913C240.656 442.438 240.845 441.902 240.95 441.307L246.987 441.343C246.882 442.438 246.564 443.516 246.033 444.579C245.51 445.641 244.789 446.611 243.872 447.489C242.954 448.358 241.835 449.05 240.515 449.565C239.203 450.08 237.698 450.338 235.999 450.338C233.762 450.338 231.758 449.847 229.987 448.865C228.224 447.875 226.831 446.434 225.809 444.543C224.787 442.651 224.276 440.349 224.276 437.636C224.276 434.916 224.795 432.61 225.833 430.718C226.872 428.826 228.276 427.39 230.047 426.408C231.818 425.426 233.802 424.935 235.999 424.935C237.497 424.935 238.881 425.144 240.153 425.562C241.425 425.973 242.544 426.577 243.509 427.374C244.475 428.162 245.26 429.132 245.864 430.283C246.468 431.434 246.842 432.75 246.987 434.232ZM273.745 437.636C273.745 440.357 273.222 442.663 272.176 444.555C271.129 446.446 269.713 447.883 267.926 448.865C266.147 449.847 264.151 450.338 261.937 450.338C259.716 450.338 257.715 449.843 255.936 448.853C254.158 447.863 252.745 446.426 251.699 444.543C250.66 442.651 250.141 440.349 250.141 437.636C250.141 434.916 250.66 432.61 251.699 430.718C252.745 428.826 254.158 427.39 255.936 426.408C257.715 425.426 259.716 424.935 261.937 424.935C264.151 424.935 266.147 425.426 267.926 426.408C269.713 427.39 271.129 428.826 272.176 430.718C273.222 432.61 273.745 434.916 273.745 437.636ZM267.636 437.636C267.636 436.027 267.407 434.666 266.948 433.555C266.497 432.445 265.845 431.603 264.992 431.032C264.147 430.46 263.128 430.175 261.937 430.175C260.754 430.175 259.736 430.46 258.882 431.032C258.029 431.603 257.373 432.445 256.914 433.555C256.464 434.666 256.238 436.027 256.238 437.636C256.238 439.246 256.464 440.607 256.914 441.717C257.373 442.828 258.029 443.669 258.882 444.241C259.736 444.812 260.754 445.098 261.937 445.098C263.128 445.098 264.147 444.812 264.992 444.241C265.845 443.669 266.497 442.828 266.948 441.717C267.407 440.607 267.636 439.246 267.636 437.636ZM277.235 450V425.273H283.211V445.146H293.498V450H277.235ZM296.592 450V425.273H302.569V445.146H312.856V450H296.592ZM315.95 450V425.273H333.191V430.126H321.926V435.197H332.31V440.063H321.926V445.146H333.191V450H315.95ZM359.379 434.232H353.342C353.262 433.612 353.097 433.052 352.847 432.553C352.598 432.054 352.268 431.628 351.857 431.273C351.447 430.919 350.96 430.65 350.396 430.464C349.841 430.271 349.225 430.175 348.549 430.175C347.35 430.175 346.315 430.469 345.446 431.056C344.585 431.644 343.921 432.493 343.454 433.604C342.995 434.714 342.766 436.059 342.766 437.636C342.766 439.278 342.999 440.655 343.466 441.766C343.941 442.868 344.605 443.701 345.458 444.265C346.319 444.82 347.338 445.098 348.513 445.098C349.173 445.098 349.772 445.013 350.312 444.844C350.859 444.675 351.338 444.43 351.749 444.108C352.167 443.778 352.509 443.379 352.775 442.913C353.049 442.438 353.238 441.902 353.342 441.307L359.379 441.343C359.275 442.438 358.957 443.516 358.425 444.579C357.902 445.641 357.182 446.611 356.264 447.489C355.347 448.358 354.228 449.05 352.908 449.565C351.596 450.08 350.09 450.338 348.392 450.338C346.154 450.338 344.15 449.847 342.379 448.865C340.616 447.875 339.224 446.434 338.202 444.543C337.179 442.651 336.668 440.349 336.668 437.636C336.668 434.916 337.188 432.61 338.226 430.718C339.264 428.826 340.669 427.39 342.44 426.408C344.21 425.426 346.195 424.935 348.392 424.935C349.889 424.935 351.274 425.144 352.545 425.562C353.817 425.973 354.936 426.577 355.902 427.374C356.868 428.162 357.653 429.132 358.256 430.283C358.86 431.434 359.234 432.75 359.379 434.232ZM361.99 430.126V425.273H382.89V430.126H375.392V450H369.5V430.126H361.99ZM391.786 425.273V450H385.809V425.273H391.786ZM418.876 437.636C418.876 440.357 418.353 442.663 417.307 444.555C416.26 446.446 414.844 447.883 413.057 448.865C411.278 449.847 409.282 450.338 407.068 450.338C404.846 450.338 402.846 449.843 401.067 448.853C399.288 447.863 397.876 446.426 396.829 444.543C395.791 442.651 395.272 440.349 395.272 437.636C395.272 434.916 395.791 432.61 396.829 430.718C397.876 428.826 399.288 427.39 401.067 426.408C402.846 425.426 404.846 424.935 407.068 424.935C409.282 424.935 411.278 425.426 413.057 426.408C414.844 427.39 416.26 428.826 417.307 430.718C418.353 432.61 418.876 434.916 418.876 437.636ZM412.767 437.636C412.767 436.027 412.537 434.666 412.079 433.555C411.628 432.445 410.976 431.603 410.123 431.032C409.278 430.46 408.259 430.175 407.068 430.175C405.885 430.175 404.867 430.46 404.013 431.032C403.16 431.603 402.504 432.445 402.045 433.555C401.595 434.666 401.369 436.027 401.369 437.636C401.369 439.246 401.595 440.607 402.045 441.717C402.504 442.828 403.16 443.669 404.013 444.241C404.867 444.812 405.885 445.098 407.068 445.098C408.259 445.098 409.278 444.812 410.123 444.241C410.976 443.669 411.628 442.828 412.079 441.717C412.537 440.607 412.767 439.246 412.767 437.636ZM443.41 425.273V450H438.339L428.499 435.729H428.342V450H422.366V425.273H427.509L437.241 439.52H437.446V425.273H443.41Z" fill="black"/>
</g>
<defs>
<filter id="filter0_d_65_2" x="0" y="0" width="508" height="508" filterUnits="userSpaceOnUse" color-interpolation-filters="sRGB">
<feFlood flood-opacity="0" result="BackgroundImageFix"/>
<feColorMatrix in="SourceAlpha" type="matrix" values="0 0 0 0 0 0 0 0 0 0 0 0 0 0 0 0 0 0 127 0" result="hardAlpha"/>
<feOffset dy="4"/>
<feGaussianBlur stdDeviation="2"/>
<feComposite in2="hardAlpha" operator="out"/>
<feColorMatrix type="matrix" values="0 0 0 0 0 0 0 0 0 0 0 0 0 0 0 0 0 0 0.25 0"/>
<feBlend mode="normal" in2="BackgroundImageFix" result="effect1_dropShadow_65_2"/>
<feBlend mode="normal" in="SourceGraphic" in2="effect1_dropShadow_65_2" result="shape"/>
</filter>
</defs>
</svg>
