<svg width="508" height="508" viewBox="0 0 508 508" fill="none" xmlns="http://www.w3.org/2000/svg">
<g filter="url(#filter0_d_66_18)">
<rect x="4" width="500" height="500" rx="11" fill="white"/>
<path d="M392.884 366H115.213C102.946 366 93 356.054 93 343.787V321.573C93 309.306 102.946 299.36 115.213 299.36H392.884C405.151 299.36 415.097 309.306 415.097 321.573V343.787C415.097 356.053 405.151 366 392.884 366Z" fill="#93271F"/>
<path d="M387.33 243.711C387.33 160.899 327.659 93.8859 254.049 93.8859C180.438 93.8859 120.767 160.899 120.767 243.711V299.362H387.33V243.711Z" fill="#C03A2B"/>
<path d="M254.049 93.8834C263.534 93.8834 272.78 94.9051 281.704 97.0213C281.777 95.7053 281.816 94.661 281.816 93.8834C281.816 78.5505 269.382 66 254.049 66C238.716 66 226.282 78.5505 226.282 93.8834C226.282 94.5112 226.309 95.5883 226.365 97.0264C235.3 94.9051 244.553 93.8834 254.049 93.8834Z" fill="#93271F"/>
<path d="M315.136 199.398C312.07 199.398 309.582 196.91 309.582 193.844C309.582 144.913 284.669 105.106 254.048 105.106C223.427 105.106 198.514 144.913 198.514 193.844C198.514 196.91 196.026 199.398 192.96 199.398C189.895 199.398 187.407 196.91 187.407 193.844C187.407 138.788 217.301 93.9998 254.047 93.9998C290.794 93.9998 320.688 138.788 320.688 193.844C320.689 196.91 318.201 199.398 315.136 199.398Z" fill="#93271F"/>
<path d="M270.709 338.233H242.942C233.756 338.233 226.281 330.758 226.281 321.573C226.281 318.507 228.77 316.019 231.835 316.019C234.901 316.019 237.389 318.507 237.389 321.573C237.389 324.633 239.883 327.126 242.942 327.126H270.709C273.775 327.126 276.263 329.614 276.263 332.68C276.262 335.745 273.774 338.233 270.709 338.233Z" fill="#C03A2B"/>
<path d="M242.942 343.672C239.877 343.672 237.388 341.184 237.388 338.118V332.682C237.388 329.611 239.877 327.128 242.942 327.128C246.008 327.128 248.496 329.611 248.496 332.682V338.118C248.495 341.184 246.008 343.672 242.942 343.672Z" fill="#C03A2B"/>
<path d="M259.602 343.672C256.537 343.672 254.049 341.184 254.049 338.118V332.682C254.049 329.611 256.537 327.128 259.602 327.128C262.668 327.128 265.156 329.611 265.156 332.682V338.118C265.156 341.184 262.667 343.672 259.602 343.672Z" fill="#C03A2B"/>
<path d="M69.7997 448L62.6037 423.273H69.2081L72.9389 439.476H73.1442L77.4062 423.273H82.7912L87.0533 439.512H87.2585L91.0014 423.273H97.5938L90.4098 448H84.6506L80.1953 433.004H80.0021L75.5469 448H69.7997ZM106.039 423.273V448H100.063V423.273H106.039ZM130.836 423.273V448H125.765L115.925 433.729H115.768V448H109.791V423.273H114.935L124.666 437.52H124.872V423.273H130.836ZM133.785 428.126V423.273H154.685V428.126H147.187V448H141.295V428.126H133.785ZM157.604 448V423.273H174.845V428.126H163.58V433.197H173.964V438.063H163.58V443.146H174.845V448H157.604ZM178.588 448V423.273H188.803C190.654 423.273 192.252 423.607 193.596 424.275C194.948 424.935 195.991 425.885 196.723 427.124C197.456 428.356 197.822 429.817 197.822 431.507C197.822 433.222 197.448 434.679 196.699 435.878C195.95 437.069 194.888 437.979 193.512 438.607C192.135 439.226 190.505 439.536 188.622 439.536H182.162V434.827H187.511C188.412 434.827 189.165 434.711 189.769 434.477C190.38 434.236 190.843 433.874 191.157 433.391C191.471 432.9 191.628 432.272 191.628 431.507C191.628 430.742 191.471 430.111 191.157 429.612C190.843 429.104 190.38 428.726 189.769 428.477C189.157 428.219 188.404 428.09 187.511 428.09H184.565V448H178.588ZM192.509 436.699L198.667 448H192.147L186.11 436.699H192.509ZM230.85 432.232H224.813C224.733 431.612 224.568 431.052 224.318 430.553C224.068 430.054 223.738 429.628 223.328 429.273C222.917 428.919 222.43 428.65 221.867 428.464C221.312 428.271 220.696 428.175 220.02 428.175C218.82 428.175 217.786 428.469 216.917 429.056C216.055 429.644 215.391 430.493 214.925 431.604C214.466 432.714 214.236 434.059 214.236 435.636C214.236 437.278 214.47 438.655 214.937 439.766C215.412 440.868 216.076 441.701 216.929 442.265C217.79 442.82 218.808 443.098 219.983 443.098C220.644 443.098 221.243 443.013 221.782 442.844C222.33 442.675 222.809 442.43 223.219 442.108C223.638 441.778 223.98 441.379 224.246 440.913C224.519 440.438 224.708 439.902 224.813 439.307L230.85 439.343C230.745 440.438 230.427 441.516 229.896 442.579C229.373 443.641 228.653 444.611 227.735 445.489C226.817 446.358 225.698 447.05 224.378 447.565C223.066 448.08 221.561 448.338 219.863 448.338C217.625 448.338 215.621 447.847 213.85 446.865C212.087 445.875 210.695 444.434 209.672 442.543C208.65 440.651 208.139 438.349 208.139 435.636C208.139 432.916 208.658 430.61 209.697 428.718C210.735 426.826 212.14 425.39 213.91 424.408C215.681 423.426 217.665 422.935 219.863 422.935C221.36 422.935 222.744 423.144 224.016 423.562C225.288 423.973 226.407 424.577 227.373 425.374C228.339 426.162 229.123 427.132 229.727 428.283C230.331 429.434 230.705 430.75 230.85 432.232ZM257.609 435.636C257.609 438.357 257.085 440.663 256.039 442.555C254.993 444.446 253.576 445.883 251.789 446.865C250.01 447.847 248.014 448.338 245.8 448.338C243.579 448.338 241.579 447.843 239.8 446.853C238.021 445.863 236.608 444.426 235.562 442.543C234.523 440.651 234.004 438.349 234.004 435.636C234.004 432.916 234.523 430.61 235.562 428.718C236.608 426.826 238.021 425.39 239.8 424.408C241.579 423.426 243.579 422.935 245.8 422.935C248.014 422.935 250.01 423.426 251.789 424.408C253.576 425.39 254.993 426.826 256.039 428.718C257.085 430.61 257.609 432.916 257.609 435.636ZM251.499 435.636C251.499 434.027 251.27 432.666 250.811 431.555C250.36 430.445 249.708 429.603 248.855 429.032C248.01 428.46 246.992 428.175 245.8 428.175C244.617 428.175 243.599 428.46 242.746 429.032C241.893 429.603 241.237 430.445 240.778 431.555C240.327 432.666 240.102 434.027 240.102 435.636C240.102 437.246 240.327 438.607 240.778 439.717C241.237 440.828 241.893 441.669 242.746 442.241C243.599 442.812 244.617 443.098 245.8 443.098C246.992 443.098 248.01 442.812 248.855 442.241C249.708 441.669 250.36 440.828 250.811 439.717C251.27 438.607 251.499 437.246 251.499 435.636ZM261.098 448V423.273H267.075V443.146H277.362V448H261.098ZM280.455 448V423.273H286.432V443.146H296.719V448H280.455ZM299.813 448V423.273H317.054V428.126H305.789V433.197H316.173V438.063H305.789V443.146H317.054V448H299.813ZM343.243 432.232H337.206C337.125 431.612 336.96 431.052 336.711 430.553C336.461 430.054 336.131 429.628 335.721 429.273C335.31 428.919 334.823 428.65 334.26 428.464C333.704 428.271 333.088 428.175 332.412 428.175C331.213 428.175 330.179 428.469 329.309 429.056C328.448 429.644 327.784 430.493 327.317 431.604C326.858 432.714 326.629 434.059 326.629 435.636C326.629 437.278 326.862 438.655 327.329 439.766C327.804 440.868 328.468 441.701 329.321 442.265C330.183 442.82 331.201 443.098 332.376 443.098C333.036 443.098 333.636 443.013 334.175 442.844C334.722 442.675 335.201 442.43 335.612 442.108C336.03 441.778 336.373 441.379 336.638 440.913C336.912 440.438 337.101 439.902 337.206 439.307L343.243 439.343C343.138 440.438 342.82 441.516 342.289 442.579C341.766 443.641 341.045 444.611 340.127 445.489C339.21 446.358 338.091 447.05 336.771 447.565C335.459 448.08 333.954 448.338 332.255 448.338C330.018 448.338 328.013 447.847 326.243 446.865C324.48 445.875 323.087 444.434 322.065 442.543C321.043 440.651 320.532 438.349 320.532 435.636C320.532 432.916 321.051 430.61 322.089 428.718C323.127 426.826 324.532 425.39 326.303 424.408C328.074 423.426 330.058 422.935 332.255 422.935C333.752 422.935 335.137 423.144 336.409 423.562C337.681 423.973 338.799 424.577 339.765 425.374C340.731 426.162 341.516 427.132 342.12 428.283C342.723 429.434 343.098 430.75 343.243 432.232ZM345.854 428.126V423.273H366.753V428.126H359.256V448H353.363V428.126H345.854ZM375.649 423.273V448H369.672V423.273H375.649ZM402.74 435.636C402.74 438.357 402.216 440.663 401.17 442.555C400.124 444.446 398.707 445.883 396.92 446.865C395.141 447.847 393.145 448.338 390.931 448.338C388.71 448.338 386.709 447.843 384.931 446.853C383.152 445.863 381.739 444.426 380.693 442.543C379.654 440.651 379.135 438.349 379.135 435.636C379.135 432.916 379.654 430.61 380.693 428.718C381.739 426.826 383.152 425.39 384.931 424.408C386.709 423.426 388.71 422.935 390.931 422.935C393.145 422.935 395.141 423.426 396.92 424.408C398.707 425.39 400.124 426.826 401.17 428.718C402.216 430.61 402.74 432.916 402.74 435.636ZM396.63 435.636C396.63 434.027 396.401 432.666 395.942 431.555C395.491 430.445 394.839 429.603 393.986 429.032C393.141 428.46 392.123 428.175 390.931 428.175C389.748 428.175 388.73 428.46 387.877 429.032C387.023 429.603 386.367 430.445 385.909 431.555C385.458 432.666 385.232 434.027 385.232 435.636C385.232 437.246 385.458 438.607 385.909 439.717C386.367 440.828 387.023 441.669 387.877 442.241C388.73 442.812 389.748 443.098 390.931 443.098C392.123 443.098 393.141 442.812 393.986 442.241C394.839 441.669 395.491 440.828 395.942 439.717C396.401 438.607 396.63 437.246 396.63 435.636ZM427.274 423.273V448H422.203L412.362 433.729H412.205V448H406.229V423.273H411.372L421.104 437.52H421.309V423.273H427.274Z" fill="black"/>
</g>
<defs>
<filter id="filter0_d_66_18" x="0" y="0" width="508" height="508" filterUnits="userSpaceOnUse" color-interpolation-filters="sRGB">
<feFlood flood-opacity="0" result="BackgroundImageFix"/>
<feColorMatrix in="SourceAlpha" type="matrix" values="0 0 0 0 0 0 0 0 0 0 0 0 0 0 0 0 0 0 127 0" result="hardAlpha"/>
<feOffset dy="4"/>
<feGaussianBlur stdDeviation="2"/>
<feComposite in2="hardAlpha" operator="out"/>
<feColorMatrix type="matrix" values="0 0 0 0 0 0 0 0 0 0 0 0 0 0 0 0 0 0 0.25 0"/>
<feBlend mode="normal" in2="BackgroundImageFix" result="effect1_dropShadow_66_18"/>
<feBlend mode="normal" in="SourceGraphic" in2="effect1_dropShadow_66_18" result="shape"/>
</filter>
</defs>
</svg>
